<svg width="22" height="22" viewBox="0 0 22 22" fill="none" xmlns="http://www.w3.org/2000/svg">
<path fill-rule="evenodd" clip-rule="evenodd" d="M6.15289 0.292893C6.34043 0.105357 6.59478 0 6.86 0H15.14C15.4052 0 15.6596 0.105357 15.8471 0.292893L21.7071 6.15289C21.8946 6.34043 22 6.59478 22 6.86V15.14C22 15.4052 21.8946 15.6596 21.7071 15.8471L15.8471 21.7071C15.6596 21.8946 15.4052 22 15.14 22H6.86C6.59478 22 6.34043 21.8946 6.15289 21.7071L0.292893 15.8471C0.105357 15.6596 0 15.4052 0 15.14V6.86C0 6.59478 0.105357 6.34043 0.292893 6.15289L6.15289 0.292893ZM7.27421 2L2 7.27421V14.7258L7.27421 20H14.7258L20 14.7258V7.27421L14.7258 2H7.27421Z" fill="#E0322C"/>
<path fill-rule="evenodd" clip-rule="evenodd" d="M11 6C11.5523 6 12 6.44772 12 7V11C12 11.5523 11.5523 12 11 12C10.4477 12 10 11.5523 10 11V7C10 6.44772 10.4477 6 11 6Z" fill="#E0322C"/>
<path fill-rule="evenodd" clip-rule="evenodd" d="M10 15C10 14.4477 10.4477 14 11 14H11.01C11.5623 14 12.01 14.4477 12.01 15C12.01 15.5523 11.5623 16 11.01 16H11C10.4477 16 10 15.5523 10 15Z" fill="#E0322C"/>
</svg>
