<svg width="20" height="22" viewBox="0 0 20 22" fill="none" xmlns="http://www.w3.org/2000/svg">
<path d="M9.99908 5.32568C8.67052 5.32568 7.39638 5.90857 6.45695 6.94612C5.51751 7.98366 4.98975 9.39088 4.98975 10.8582C4.98975 12.3255 5.51751 13.7327 6.45695 14.7703C7.39638 15.8078 8.67052 16.3907 9.99908 16.3907C11.3276 16.3907 12.6018 15.8078 13.5412 14.7703C14.4806 13.7327 15.0084 12.3255 15.0084 10.8582C15.0084 9.39088 14.4806 7.98366 13.5412 6.94612C12.6018 5.90857 11.3276 5.32568 9.99908 5.32568ZM9.99908 14.4512C9.13598 14.4512 8.30822 14.0725 7.69792 13.3985C7.08761 12.7244 6.74475 11.8102 6.74475 10.857C6.74475 9.90374 7.08761 8.98954 7.69792 8.3155C8.30822 7.64145 9.13598 7.26278 9.99908 7.26278C10.8622 7.26278 11.6899 7.64145 12.3002 8.3155C12.9105 8.98954 13.2534 9.90374 13.2534 10.857C13.2534 11.8102 12.9105 12.7244 12.3002 13.3985C11.6899 14.0725 10.8622 14.4512 9.99908 14.4512Z" fill="#4D5569"/>
<path d="M15.2064 6.41163C15.8514 6.41163 16.3742 5.83417 16.3742 5.12183C16.3742 4.40949 15.8514 3.83203 15.2064 3.83203C14.5614 3.83203 14.0386 4.40949 14.0386 5.12183C14.0386 5.83417 14.5614 6.41163 15.2064 6.41163Z" fill="#4D5569"/>
<path d="M19.2439 3.81098C18.9931 3.0957 18.6098 2.44614 18.1186 1.90387C17.6275 1.3616 17.0392 0.938566 16.3915 0.661856C15.6335 0.34761 14.8327 0.177691 14.0233 0.159336C12.98 0.109084 12.6496 0.0947266 10.0041 0.0947266C7.35862 0.0947266 7.01954 0.0947264 5.98495 0.159336C5.17612 0.176753 4.37594 0.346706 3.61895 0.661856C2.97105 0.938243 2.38261 1.36116 1.8914 1.90347C1.40018 2.44578 1.01703 3.09552 0.766536 3.81098C0.48195 4.64805 0.328452 5.53251 0.31262 6.42647C0.266036 7.57748 0.251953 7.94241 0.251953 10.8654C0.251953 13.7872 0.251953 14.1593 0.31262 15.3043C0.32887 16.1993 0.48162 17.0823 0.766536 17.921C1.01774 18.6362 1.40126 19.2857 1.89259 19.8279C2.38393 20.3702 2.97227 20.7932 3.62004 21.0701C4.37559 21.397 5.17611 21.5791 5.98712 21.6085C7.03037 21.6588 7.36079 21.6744 10.0063 21.6744C12.6518 21.6744 12.9909 21.6744 14.0255 21.6085C14.8348 21.5904 15.6355 21.4209 16.3936 21.1072C17.0412 20.8299 17.6293 20.4065 18.1204 19.8641C18.6115 19.3216 18.9949 18.6721 19.246 17.9569C19.531 17.1194 19.6837 16.2364 19.7 15.3414C19.7465 14.1904 19.7606 13.8255 19.7606 10.9025C19.7606 7.9795 19.7606 7.60859 19.7 6.46356C19.6873 5.55696 19.533 4.65958 19.2439 3.81098ZM17.9244 15.2158C17.9174 15.9053 17.8034 16.5884 17.5875 17.2354C17.4248 17.7007 17.1757 18.1232 16.8563 18.4758C16.5369 18.8284 16.1542 19.1032 15.7328 19.2826C15.1534 19.52 14.5415 19.6459 13.9236 19.6547C12.8945 19.7073 12.6041 19.7205 9.96512 19.7205C7.32395 19.7205 7.0542 19.7205 6.00554 19.6547C5.38796 19.6464 4.77631 19.5205 4.19745 19.2826C3.77461 19.1043 3.39037 18.83 3.06958 18.4773C2.7488 18.1247 2.49861 17.7016 2.3352 17.2354C2.12227 16.5954 2.00837 15.9203 1.99829 15.2385C1.9517 14.1019 1.94087 13.7812 1.94087 10.8666C1.94087 7.95078 1.94087 7.65286 1.99829 6.49348C2.00529 5.80433 2.11925 5.12162 2.3352 4.47502C2.66562 3.531 3.3427 2.78799 4.19745 2.42666C4.77659 2.18992 5.38806 2.06408 6.00554 2.05455C7.03579 2.0031 7.32504 1.98875 9.96512 1.98875C12.6052 1.98875 12.876 1.98875 13.9236 2.05455C14.5416 2.06276 15.1536 2.18864 15.7328 2.42666C16.1541 2.60645 16.5368 2.88156 16.8562 3.23431C17.1756 3.58707 17.4247 4.00968 17.5875 4.47502C17.8004 5.11508 17.9143 5.79014 17.9244 6.47194C17.971 7.60979 17.9829 7.92925 17.9829 10.8451C17.9829 13.7597 17.9829 14.0731 17.9363 15.217H17.9244V15.2158Z" fill="#4D5569"/>
</svg>
