<svg width="25" height="24" viewBox="0 0 25 24" fill="none" xmlns="http://www.w3.org/2000/svg">
<path d="M11.1153 1.05729C11.4672 0.265246 12.5912 0.265246 12.9431 1.05729L15.6619 7.1776C15.8071 7.50465 16.1161 7.72913 16.4721 7.76624L23.133 8.46067C23.995 8.55054 24.3423 9.61961 23.6978 10.199L18.7172 14.676C18.451 14.9152 18.333 15.2784 18.4077 15.6284L19.8056 22.1779C19.9865 23.0255 19.0771 23.6862 18.3269 23.2523L12.5299 19.8989C12.2202 19.7197 11.8382 19.7197 11.5285 19.8989L5.7315 23.2523C4.98131 23.6862 4.0719 23.0255 4.2528 22.1779L5.6507 15.6284C5.72539 15.2784 5.60738 14.9152 5.34123 14.676L0.360614 10.199C-0.283937 9.61961 0.0634258 8.55054 0.925427 8.46067L7.58634 7.76624C7.94228 7.72913 8.25125 7.50465 8.39653 7.1776L11.1153 1.05729Z" fill="#E4A972"/>
</svg>
