<svg width="240" height="261" viewBox="0 0 240 261" fill="none" xmlns="http://www.w3.org/2000/svg">
<path d="M213 111.4C212.9 112.8 212.8 114.4 212.6 115.7C212.2 117.2 211.5 118.5 210.6 119.5C209.6 120.6 208 121.1 206.4 121.3C205 121.3 203.6 121.3 202.2 121.3C202.1 121.3 202 121.3 201.9 121.3C199.5 121.2 196.2 120.8 194.4 119.1C192.8 117.6 192.6 115.1 192.8 113.1C192.9 111.9 193.6 108.1 195.2 107.9H195.3C195.9 108 196.7 107.6 196.5 107.2C196.4 107.1 198.3 106 199.5 105.3C199.6 106.2 199.8 107.1 200.2 108C200.4 108.6 202.1 108.1 201.9 107.6C201.5 106.6 201.3 105.5 201.2 104.5C202.6 104 204.2 103.8 205.7 104C205.9 104 206 104 206.2 104.1C207.9 104.4 209.5 105.1 210.7 106.3C212 107.6 212.8 109.5 213 111.4Z" fill="#68B388"/>
<path d="M187.9 98.8003C187.9 98.9003 188 98.9003 187.9 98.8003C187.9 98.9003 187.8 99.1003 187.5 99.4003C187.6 99.2003 187.8 99.0003 187.9 98.8003Z" fill="#E4A972"/>
<path d="M171.8 89.8999C170.6 91.0999 169.4 92.1999 168.1 93.2999L171.8 89.8999Z" fill="#E4A972"/>
<path d="M161 251.4C162.7 252.7 164.1 255.5 161 255.9C158.8 256.2 156.5 255.7 154.3 255.5C150.1 255.1 145.9 255.7 141.7 254.8C136.6 253.8 133.3 250.6 133.4 245.4C134 245.5 134.7 245.6 135.5 245.8C140.2 246.7 145.7 247.6 149.5 245.5C153.4 247.5 157.6 248.8 161 251.4Z" fill="#EE9E60"/>
<path d="M146.4 245.9C147.2 245.7 147.8 245.4 148.3 245.3C147.7 245.5 147.1 245.7 146.4 245.9Z" fill="#E4A972"/>
<path d="M123.9 87.6002C125 89.4002 126.2 91.3002 127.3 93.1002L123.1 86.6002C123.1 86.5002 123.1 86.3002 123 86.2002C123.4 86.7002 123.7 87.2002 123.9 87.6002Z" fill="#E4A972"/>
<path d="M107.5 244.9C108.8 247.6 110.1 250.7 109.1 253.7C109 254.1 108.8 254.6 108.5 254.9C107.8 255.6 107 256.2 106.3 256.7C103.7 257.9 99.9002 257.5 97.3002 257.8C92.1002 258.4 87.0002 258.9 81.7002 258.3C75.7002 257.6 81.6002 253.5 84.1002 252.2C87.8002 250.2 91.9002 248.9 95.4002 246.6C95.5002 246.6 95.5002 246.5 95.5002 246.5C98.0002 246.5 100.5 246.4 102.8 246C103.6 246 104.2 246 104.7 246C106 245.8 106.9 245.4 107.5 244.9Z" fill="#EE9E60"/>
<path d="M121.1 81.6001C120.2 81.8001 120.3 82.2001 121 82.1001C120.3 82.3001 120.4 82.1001 120.8 82.7001C120.9 82.9001 121 83.0001 121.1 83.2001C121.3 88.6001 122.7 94.1001 123.9 99.3001C125.8 108.6 128.1 117.8 130.4 127C132.6 135.9 135 144.9 137.4 153.8C138.6 158.3 139.6 163.3 141.6 167.6C137.6 169 133.1 169.6 129 170.2C127.6 170.4 126.1 170.6 124.5 170.8C121.1 171 118.4 171 117 170.9C116.4 170.8 115.8 170.7 115.3 170.6L113.1 169.6C113.4 168.6 113.2 167.2 113.3 166.6C113.5 162.9 113.6 159.2 113.7 155.5C114 145 114.2 134.5 114.2 124C114.2 100.6 111.3 77.5001 105.9 54.8001C105.5 53.3001 105.1 51.7001 104.7 50.2001L104.9 49.6001C107.4 50.2001 108.4 53.3001 108 55.9001C107.9 56.3001 109.1 56.1001 109.5 55.8001C125.1 55.7001 134.3 69.7001 142.3 80.9001C144.4 83.8001 146.5 86.8001 148.5 89.8001C150.3 92.5001 151.8 95.8001 154.3 97.9001C156.7 100 160 99.5001 162.7 98.4001C166.3 97.0001 169.5 94.1001 172.3 91.5001C173.6 90.3001 174.8 88.9001 176.1 87.6001C176.5 87.2001 176.9 86.7001 177.4 86.3001C177.7 86.0001 177.8 85.9001 177.9 85.9001C177.8 86.0001 177.5 86.1001 177 85.9001C177.3 86.1001 177.9 85.9001 178.2 85.7001C179 86.2001 180.6 87.4001 182.3 89.4001C182.9 90.2001 183.7 91.3001 184.4 92.5001C185.4 94.5001 186.1 96.6001 186.8 98.7001C186.8 98.8001 186.9 98.9001 187 98.9001C180.5 107.9 169.2 114.7 158.1 115C157.6 115 157 115 156.5 114.9C152.8 114.5 149.7 113.8 147.3 113C145.5 112.2 143.7 111.2 142 109.9C136.5 105.7 133.2 99.2001 129.6 93.4001C128 90.7001 126.3 88.1001 124.7 85.4001C124.2 84.6001 123.7 83.6001 123.2 82.8001C123.2 82.6001 123.2 82.5001 123.2 82.3001C123.2 82.0001 122.9 81.9001 122.5 81.9001C122.5 81.8001 122.4 81.8001 122.4 81.7001C121.9 81.4001 121.3 81.5001 121.1 81.6001Z" fill="#EE9E60"/>
<path d="M104.4 257.9C104.2 258 104 258.1 104 258.1L102 258.2C102.3 258.2 102.5 258.2 102.8 258.1C103.4 258.1 103.9 258 104.4 257.9Z" fill="#E4A972"/>
<path d="M96.6999 61.5C96.8999 66.3 96.2999 71.3 95.9999 76.1C95.4999 84.3 94.8999 92.5 94.2999 100.8C93.7999 107.5 93.2999 114.1 92.7999 120.8C92.6999 122.1 92.5999 123.4 92.4999 124.7C92.4999 125.2 91.3999 126.6 91.0999 127.2C89.9999 129.2 88.7999 131.1 87.5999 133C86.6999 131.9 85.9999 130.4 85.1999 129.3C84.5999 128.5 83.7999 126.5 82.8999 125.9C82.8999 125.3 82.8999 124.7 82.8999 124.1C83.0999 120.7 83.2999 117.3 83.4999 113.9C83.8999 106.6 85.3999 99.4 86.8999 92.3C88.3999 85.6 90.0999 78.9 91.9999 72.2C92.7999 69.1 94.3999 65.6 94.5999 62.4C94.9999 62.4 95.2999 62.3 95.5999 62.2C95.9999 61.9 96.3999 61.8 96.6999 61.5Z" fill="#68B388"/>
<path d="M95.5999 61.4003C95.4999 61.5003 95.3999 61.6003 95.2999 61.6003H95.1999C94.5999 61.4003 94.2999 60.7003 94.0999 60.2003C93.5999 59.1003 93.4999 57.8003 93.3999 56.6003C94.4999 56.5003 95.6999 56.3003 96.5999 56.3003C96.3999 57.6003 96.2999 58.9003 96.2999 60.1003C96.2999 60.3003 96.3999 60.4003 96.4999 60.5003C96.1999 60.8003 95.8999 61.1003 95.5999 61.4003Z" fill="#E4A972"/>
<path d="M65.1998 72.1999C69.2998 66.0999 74.4998 56.1999 83.2998 58.6999H83.3998C83.3998 58.7999 83.2998 58.8999 83.2998 58.8999C82.9998 59.7999 84.5998 59.6999 84.8998 59.0999C85.5998 57.2999 87.6998 51.3999 90.3998 52.8999C88.4998 55.6999 87.6998 59.6999 86.8998 62.6999C85.1998 68.9999 84.0998 75.4999 82.8998 81.8999C81.5998 89.0999 80.7998 96.1999 80.1998 103.4C79.1998 114.6 78.3998 125.8 77.6998 136.9C76.9998 136.7 75.7998 137.8 76.7998 138C77.0998 138.1 77.3998 138.1 77.6998 138.2C77.5998 139.7 77.4998 141.3 77.3998 142.8C77.1998 142.9 76.9998 143 76.8998 143.2C76.6998 143.4 76.9998 143.5 77.3998 143.5C77.0998 149.2 76.7998 155 76.5998 160.7C76.4998 162.8 76.4998 164.9 76.4998 167C76.4998 167.7 76.3998 168.6 76.4998 169.4C76.2998 169.5 75.8998 169.5 75.5998 169.6C72.3998 169.7 68.8998 169.7 66.2998 167.8C65.3998 167.1 64.8998 165.9 63.8998 165.3C63.7998 165.2 63.5998 165.2 63.3998 165.3C62.9998 152.4 63.9998 139.5 65.1998 126.7C66.3998 115.1 67.8998 103.6 70.0998 92.0999C70.0998 92.0999 70.0998 92.0999 70.1998 91.9999C70.5998 91.6999 70.4998 91.3999 70.2998 91.1999C71.2998 85.8999 72.3998 80.6999 73.6998 75.4999C73.7998 75.0999 72.1998 75.3999 72.0998 75.7999C70.7998 81.0999 69.6998 86.2999 68.6998 91.6999C56.9998 101 38.7998 102.9 26.6998 93.3999C16.6998 85.5999 12.6998 72.0999 9.2998 60.3999C9.7998 60.4999 10.5998 60.1999 10.5998 59.6999C16.0998 56.8999 22.9998 53.8999 28.9998 54.2999C29.1998 54.2999 29.4998 54.1999 29.6998 54.0999C32.0998 64.2999 35.7998 85.5999 49.9998 84.1999C51.1998 84.0999 52.2998 83.7999 53.2998 83.3999C53.9998 83.2999 54.7998 82.8999 55.5998 82.2999C59.5998 80.1999 62.5998 76.0999 65.1998 72.1999Z" fill="#EE9E60"/>
<path d="M81.7998 126.9C82.1998 127.3 82.5998 127.9 82.8998 128.5L81.7998 126.9Z" fill="#E4A972"/>
<path d="M49.9002 83.6002C48.6002 83.8002 47.4002 83.6002 46.2002 83.2002C47.3002 83.3002 48.6002 83.5002 49.9002 83.6002Z" fill="#E4A972"/>
<path d="M29.4998 53.3002C28.8998 53.2002 28.2998 53.2002 27.7998 53.2002C29.2998 52.9002 30.1998 52.7002 30.1998 52.7002L30.2998 53.3002C30.1998 53.3002 30.0998 53.4002 29.9998 53.4002C29.7998 53.4002 29.6998 53.3002 29.4998 53.3002Z" fill="#E4A972"/>
<path d="M12.7998 76.6001C13.7998 78.8001 14.7998 81.0001 15.9998 83.1001C15.2998 82.1001 14.7998 81.2001 14.3998 80.5001C13.8998 79.7001 13.3998 78.2001 12.7998 76.6001Z" fill="#E4A972"/>
<path d="M13.1998 57.3003C12.0998 57.8003 10.9998 58.3003 9.99981 58.8003C9.89981 58.7003 9.8998 58.6003 9.7998 58.5003C10.7998 58.1003 11.8998 57.7003 13.1998 57.3003Z" fill="#E4A972"/>
<path d="M8.2 59.1001C8.2 59.2001 8.3 59.3001 8.4 59.4001C8.1 59.4001 7.8 59.5001 7.6 59.6001C7.6 59.4001 7.5 59.3001 7.5 59.3001C7.5 59.3001 7.8 59.3001 8.2 59.1001Z" fill="#E4A972"/>
<path d="M238.9 168.4C238.9 168.2 238.8 168.1 238.8 168C239 167.8 238.9 167.5 238.4 167.5C234.5 167.5 230.6 167.5 226.7 167.5C226.7 167.3 226.6 167.1 226.2 167C224.6 166.8 223 166.6 221.4 166.4C222.1 165.2 221.6 162.2 221.6 161.1C221.6 160.8 221.6 160.4 221.6 160.1C222.2 159.9 222.1 159.4 221.6 159.3C221.6 158.5 221.6 157.8 221.5 157C222 156.7 222.2 156.1 221.5 156.2C221.4 155.1 221.3 154 221.2 152.9C222.7 153.1 224.2 153.2 225.6 153.5C226.5 153.6 227.3 152.4 226.2 152.2C225.9 152.1 225.5 152.1 225.2 152.1C225.6 151.7 225.5 151.1 224.7 151.1C223.7 151.1 222.7 151.1 221.7 151.1C222.1 149.7 221.7 147.3 221.7 146.3C221.7 146 221.7 145.6 221.7 145.3C222.3 145.1 222.2 144.6 221.7 144.5C221.7 143.7 221.7 143 221.6 142.2C222.1 141.9 222.3 141.3 221.6 141.4C221.5 140.3 221.4 139.2 221.3 138.1C222.8 138.3 224.3 138.4 225.7 138.7C226.6 138.8 227.4 137.6 226.3 137.4C226 137.3 225.6 137.3 225.3 137.3C225.7 136.9 225.6 136.3 224.8 136.3C223.8 136.3 222.8 136.3 221.8 136.3C222.2 134.9 221.8 132.5 221.8 131.5C221.8 131.2 221.8 130.8 221.8 130.5C222.4 130.3 222.3 129.8 221.8 129.7C221.8 128.9 221.8 128.2 221.7 127.4C222.2 127.1 222.4 126.5 221.7 126.6C221.6 125.3 221.5 124 221.3 122.7C222.4 122.7 223.6 122.7 224.7 122.7C225.6 122.7 226 121.5 224.8 121.5C219.9 121.5 215 121.5 210 121.5C210.5 121.3 211 121 211.5 120.6C216.9 116.6 215.5 106.8 209.8 104C207.1 102.7 204.1 102.8 201.3 103.7C201.4 101.5 202.3 99.4001 203.9 97.7001C204.4 97.2001 202.7 97.3001 202.4 97.7001C200.7 99.6001 199.7 101.9 199.7 104.3C199.6 104.3 199.5 104.4 199.4 104.4C198.9 104.6 196.1 106.1 195.2 107.1C190.4 108 190.5 116.4 192.6 119.5C193.2 120.4 194.2 121 195.4 121.5C188.9 121.5 182.4 121.5 176 121.5C175.7 121.5 175.4 121.7 175.3 121.9C171.5 122.4 168.9 125.5 168.7 129.5C168.4 133.6 170.9 135.9 174.1 137.1C171 138 169 140.9 168.7 144.4C168.4 148.5 170.9 150.8 174.1 152C171 152.9 169 155.8 168.7 159.3C168.3 164.8 172.9 167.2 177.7 167.7C181.2 168 184.8 167.6 188.4 167.4C192.3 167.2 196.2 167.2 200.1 167.2C206.6 167.2 213.1 167.3 219.5 167.9C198.6 167.9 177.6 167.9 156.7 167.9C156.6 167.2 155.3 167.4 155.1 168C154.5 168.2 153.9 169 154.8 169C154.9 169 155 169 155 169C155 171.4 154.9 173.8 154.6 176.2C154.6 176.4 154.6 176.5 154.8 176.6C154.3 176.9 154 177.4 154.8 177.4C157.9 177.4 161.1 177.4 164.2 177.4C164.4 205.2 171.4 232.4 171.5 260.2C171.5 260.5 171.7 260.6 172 260.6C171.9 260.8 172 261 172.5 261C175 261 177.5 260.7 180 260C180 260.1 180 260.1 180 260.2C180 261 181.7 260.6 181.7 260C181.7 256.8 181.6 253.5 181.4 250.3C192.8 250.3 204.3 250.3 215.7 250.3C216 250.3 216.4 250.1 216.7 249.8C216.5 253.3 216.4 256.7 216.4 260.2C216.4 260.5 216.6 260.6 216.9 260.6C216.8 260.8 216.9 260.9 217.5 260.8C219.8 260.4 222.3 259.7 224.6 260.4C224.7 260.4 224.8 260.4 224.9 260.4C225.2 260.8 226.5 260.5 226.5 260C226.6 232.3 233.6 205.1 233.7 177.4C235.2 177.4 236.8 177.4 238.3 177.4C238.9 177.4 239.7 176.6 239.3 176.4C239.4 176.3 239.5 176.2 239.5 176C238.9 173.3 238.9 170.9 238.9 168.4ZM194.3 119.1C192.7 117.6 192.5 115.1 192.7 113.1C192.8 111.9 193.5 108.1 195.1 107.9H195.2C195.8 108 196.6 107.6 196.4 107.2C196.3 107.1 198.2 106 199.4 105.3C199.5 106.2 199.7 107.1 200.1 108C200.3 108.6 202 108.1 201.8 107.6C201.4 106.6 201.2 105.6 201.1 104.5C202.5 104 204.1 103.8 205.6 104C205.8 104 205.9 104 206.1 104.1C207.8 104.4 209.4 105.1 210.6 106.3C211.9 107.6 212.7 109.5 212.9 111.5C213 112.9 212.9 114.4 212.5 115.8C212.1 117.3 211.4 118.6 210.5 119.6C209.5 120.7 207.9 121.2 206.3 121.4C204.9 121.4 203.5 121.4 202.1 121.4C202 121.4 201.9 121.4 201.8 121.4C199.5 121.1 196.2 120.8 194.3 119.1ZM171.3 133.4C168.3 129.4 170.9 122.9 176 122.9C176.3 122.9 176.6 122.7 176.7 122.5C190.9 122.5 205.1 122.5 219.3 122.5C219.6 123.8 219.7 125.2 219.8 126.6C215.4 127 210.9 127 206.5 127.1C204 127.1 201.4 127.1 198.9 127.1C198.1 127.1 197.3 127.1 196.5 127C196.1 127 195.2 126.8 195.4 127C195 126.6 193.4 127.2 193.9 127.7C194.4 128.2 196 128 196.6 128C199.3 128.1 202 128.1 204.7 128.1C209.8 128.1 214.9 128.1 220 127.6C220 128.3 220 129.1 220.1 129.8C217.8 130.1 215.5 130.1 213.2 130.2C212.2 130.2 208.1 130.5 207.7 130.1C207.3 129.7 205.7 130.3 206.2 130.8C207.2 131.8 210.8 131.2 212 131.2C214.7 131.2 217.5 131.2 220.2 130.8C220.3 132 220.5 135.1 220.3 136.3C219 136.3 217.7 136.3 216.4 136.3C207.1 135.6 197.7 135.7 188.5 136.1C187.8 136.1 187.1 136.2 186.3 136.3C183 136.3 179.6 136.3 176.3 136.3C174.1 135.8 172.4 134.9 171.3 133.4ZM171.3 148.3C168.3 144.3 170.9 137.8 176 137.8C176.3 137.8 176.5 137.7 176.7 137.5C176.9 137.5 177.2 137.6 177.4 137.6C180.5 137.9 183.6 137.6 186.7 137.4C195.8 137.4 204.9 137.4 214 137.4C215.8 137.5 217.6 137.6 219.4 137.8C219.6 139 219.7 140.2 219.8 141.5C215.4 141.9 210.9 141.9 206.5 142C204 142 201.4 142 198.9 142C198.1 142 197.3 142 196.5 141.9C196.1 141.9 195.2 141.7 195.4 141.9C195 141.5 193.4 142.1 193.9 142.6C194.4 143.1 196 142.9 196.6 142.9C199.3 143 202 143 204.7 143C209.8 143 214.9 143 220 142.5C220 143.2 220 144 220.1 144.7C217.8 145 215.5 145 213.2 145.1C212.2 145.1 208.1 145.4 207.7 145C207.3 144.6 205.7 145.2 206.2 145.7C207.2 146.7 210.8 146.1 212 146.1C214.7 146.1 217.5 146.1 220.2 145.7C220.3 146.9 220.5 150 220.3 151.2C219 151.2 217.7 151.2 216.4 151.2C207.1 150.5 197.7 150.6 188.5 151C187.8 151 187.1 151.1 186.3 151.2C183 151.2 179.6 151.2 176.3 151.2C174.1 150.7 172.4 149.8 171.3 148.3ZM188.2 165.8C183.1 166 174.8 167.9 171.3 163.2C168.3 159.2 170.9 152.7 176 152.7C176.3 152.7 176.5 152.6 176.7 152.4C176.9 152.4 177.2 152.5 177.4 152.5C180.5 152.8 183.6 152.5 186.7 152.3C195.8 152.3 204.9 152.3 214 152.3C215.8 152.4 217.6 152.5 219.4 152.7C219.6 153.9 219.7 155.1 219.8 156.4C215.4 156.8 210.9 156.8 206.5 156.9C204 156.9 201.4 156.9 198.9 156.9C198.1 156.9 197.3 156.9 196.5 156.8C196.1 156.8 195.2 156.6 195.4 156.8C195 156.4 193.4 157 193.9 157.5C194.4 158 196 157.8 196.6 157.8C199.3 157.9 202 157.9 204.7 157.9C209.8 157.9 214.9 157.9 220 157.4C220 158.1 220 158.9 220.1 159.6C217.8 159.9 215.5 159.9 213.2 160C212.2 160 208.1 160.3 207.7 159.9C207.3 159.5 205.7 160.1 206.2 160.6C207.2 161.6 210.8 161 212 161C214.7 161 217.5 161 220.2 160.6C220.3 161.9 220.5 165.7 220.2 166.5C209.4 165.2 198.7 165.3 188.2 165.8ZM172.8 259.6C172.7 231.9 165.7 204.7 165.6 177C167.8 177 170.1 177 172.3 177C172.5 204.4 179.2 231.2 179.5 258.6C177.4 259.3 175.1 259.6 172.8 259.6ZM176.1 198.2C175.8 198.2 175.5 198.4 175.2 198.6C174.5 191.5 174 184.3 173.9 177.1C190.3 177.1 206.6 177.1 223 177.1C223 184.2 222.5 191.2 221.8 198.2C206.6 198.2 191.4 198.2 176.1 198.2ZM221.8 199.2C220.7 209.6 219.2 219.9 218 230.3C205.5 230.3 192.9 230.3 180.4 230.3C180 230.3 179.3 230.7 179.3 231C178.1 220.4 176.5 209.8 175.4 199.2C175.5 199.2 175.5 199.2 175.6 199.2C190.9 199.2 206.3 199.2 221.8 199.2ZM216.2 249C216.1 249 216 248.9 215.8 248.9C204.2 248.9 192.6 248.9 181 248.9C180.9 248.9 180.9 248.9 180.8 248.9C180.4 242.9 179.9 237 179.2 231C179.2 231.1 179.4 231.1 179.7 231.1C192.4 231.1 205.1 231.1 217.8 231.1C217.2 237.2 216.6 243.1 216.2 249ZM224.3 259.2C222.1 258.9 219.8 259.4 217.5 259.8C217.5 259.8 217.5 259.8 217.5 259.7C217.6 239.2 221.4 219 223.5 198.7C223.6 198.5 223.7 198.4 223.5 198.3C224.2 191.3 224.7 184.2 224.8 177.1C227 177.1 229.3 177.1 231.5 177.1C231.3 204.6 224.5 231.6 224.3 259.2ZM232.7 176C232.6 176 232.5 176 232.3 176C229.6 176 226.9 176 224.3 176C224.2 176 224.1 176 223.9 176C207.1 176 190.3 176 173.5 176C173.4 176 173.3 176 173.1 176C170.4 176 167.7 176 165.1 176C165 176 164.9 176 164.7 176C161.7 176 158.8 176 155.8 176C155.9 175.9 156 175.8 156 175.7C156.3 173.4 156.4 171 156.4 168.7C183.3 168.7 210.3 168.7 237.2 168.7C237.2 171.1 237.2 173.5 237.2 175.9C237.2 176 237.2 176 237.2 176.1C235.7 176 234.2 176 232.7 176ZM99.4 30.7001C99.7 30.5001 100 30.4001 100.3 30.1001C100.6 29.8001 101 29.7001 101.4 29.7001C101.5 29.7001 102.1 29.7001 101.8 30.0001C101.5 30.2001 101.2 30.3001 100.9 30.6001C100.6 30.9001 100.2 31.0001 99.8 31.0001C99.6001 31.0001 99.1 31.0001 99.4 30.7001ZM95.8 245.2C96.1001 245 96.6 244.9 97 244.9C97.1 244.9 97.3 244.9 97.4 244.9C97.7 244.9 97.8 245.1 97.5 245.2C97.2 245.4 96.7001 245.5 96.3 245.5C96.2001 245.5 96 245.5 95.9 245.5C95.5 245.6 95.5 245.4 95.8 245.2ZM158.6 248.3C156.1 247 153.4 246 150.8 244.7C151 244.6 151.1 244.4 151.3 244.2C151.8 244.2 152.4 244 152.6 243.7C152.9 243 152.2 241.5 151.9 240.9C151.1 238.4 150.2 236 149.2 233.6C146.5 226.5 143.8 219.5 141.4 212.3C139.1 205.7 137.3 199.1 135.9 192.2C134.9 187.4 133.9 182.7 132.9 177.9C132.8 177.2 131.4 171.8 132 171.4C132.8 171 132 170.7 131.4 170.8C135.3 170.2 139.3 169.5 142.9 168.1C143.1 168 143.5 167.8 143.4 167.5C141.4 163.3 140.4 158.3 139.1 153.8C136.6 145 134.3 136.1 132.1 127.2C129.8 118.1 127.7 109 125.7 99.9001C124.8 95.6001 123.6 91.1001 123 86.6001C123 86.5001 123 86.3001 123 86.2001C123.3 86.7001 123.6 87.1001 123.9 87.6001C125 89.4001 126.2 91.3001 127.3 93.2001C128.1 94.5001 128.9 95.8001 129.7 97.0001C134 103.9 138.4 110.4 146.1 113.7C160.3 119.8 178.4 110.8 187.4 99.4001C187.5 99.2001 187.7 99.0001 187.8 98.8001C188 98.6001 188.2 98.3001 188.4 98.1001C188.4 98.1001 188.3 98.0001 188 98.0001C187.9 97.7001 187.8 97.3001 187.7 97.0001H187.8C192.3 97.1001 197.1 93.8001 200.5 91.2001C202.3 89.9001 207.9 84.9001 202.8 84.5001C203.1 84.3001 203.4 84.0001 203.7 83.8001C204.3 83.2001 205.3 82.4001 205.3 81.4001C205.3 80.7001 204.7 80.4001 204.1 80.3001C204.6 79.8001 205 79.3001 205.4 78.7001C206.1 77.6001 205.6 76.5001 204.6 75.9001C204.1 75.6001 203.6 75.5001 203.1 75.6001C203.7 74.7001 203.9 73.9001 203.3 73.0001C201.3 70.1001 196.6 73.2001 194.1 75.5001C194.7 72.7001 194.4 70.2001 192.1 69.8001C189.1 69.2001 187.1 72.1001 185.5 74.1001C184.4 75.4001 183.4 76.8001 182.6 78.3001C181.3 80.7001 181.1 83.1001 181 85.6001C180.5 85.2001 180 84.8001 179.4 84.4001C179.1 84.2001 178.2 84.5001 178 84.8001C178 84.8001 177.9 84.8001 177.9 84.7001C176.5 84.0001 174.7 86.8001 173.9 87.5001C173.2 88.3001 172.4 89.0001 171.7 89.8001C170.5 91.0001 169.3 92.1001 168 93.2001C166.9 94.1001 165.8 95.0001 164.6 95.8001C162.8 97.0001 160.7 98.1001 158.5 98.1001C156 98.1001 154.5 96.1001 153.3 94.2001C149.3 88.1001 145.2 82.1001 140.9 76.3001C132.9 65.5001 124.3 54.4001 109.5 54.5001C109.6 52.9001 109.3 51.3001 108.3 50.0001C107.3 48.8001 105.8 48.4001 104.3 48.5001C104.2 47.4001 103.9 46.4001 103.5 45.4001C105.7 47.3001 108.5 49.2001 111.1 48.3001C114.6 47.1001 114.3 43.3001 114.1 40.2001C117.6 41.9001 123.2 44.5001 125.4 40.6001C129.2 33.6001 123.4 25.8001 118.5 20.8001C120.5 21.0001 122.5 21.5001 124.3 20.3001C126.7 18.7001 123.7 15.1001 122.5 13.8001C118.1 8.70006 110.5 8.30006 104.1 8.60006C101.5 1.20006 92.1 0.800062 85.5 2.10006C79.5 3.40006 75.3 7.30006 72.6 12.2001C67.7 12.2001 63.5 15.1001 60.7 19.1001C60.2 19.8001 58.8 22.3001 60.2 22.9001C61.2 23.3001 62.4 23.1001 63.4 22.6001C61.6 26.1001 60.3 30.2001 59.8 34.0001C59.3 37.5001 61 38.7001 63.7 37.8001C64.4 39.7001 64.5 41.8001 65.4 43.6001C66.4 45.5001 68.8 45.4001 70.6 45.2001C70.8 45.2001 71.2001 45.0001 71.4 44.8001C72.1 45.7001 72.9 46.5001 73.8 47.1001C78.4 50.4001 87.7001 46.8001 90.8 51.4001C87.3 50.1001 84.9001 54.2001 83.6001 57.3001C69.0001 53.6001 64.8 75.0001 55.2 81.2001C53.2 82.5001 51.3 83.2001 49.6 83.4001C48.3 83.5001 47.1 83.4001 45.9 83.0001C37 80.1001 33 61.5001 31.1 53.7001C31 53.4001 30.6 53.3001 30.2 53.4001C30.1 53.4001 30 53.5001 29.9 53.5001C29.8 53.4001 29.7 53.3001 29.5 53.3001C28.9 53.3001 28.3 53.2001 27.8 53.3001C27.1 53.3001 26.4 53.3001 25.7 53.4001C25.8 53.3001 25.9 53.2001 25.9 53.1001C26.4 49.3001 31.2 39.3001 25.2 37.4001C22.3 36.5001 19.1 38.0001 17 40.2001C17 40.1001 16.9 40.1001 16.9 40.0001C20.2 27.0001 23.3 14.0001 25.6 0.700064C25.7 0.100064 24 0.400065 23.9 0.900065C21.8 13.6001 18.8 26.2001 15.6 38.7001C15.3 38.5001 15 38.2001 14.7 38.1001C13.3 37.0001 11.8 36.1001 10.6 34.9001C10.5 34.8001 10.3 34.8001 10.1 34.8001C10.3 34.6001 10.3 34.4001 9.80004 34.4001C7.60004 34.3001 4.50005 35.0001 4.90005 37.8001C5.00005 38.5001 5.30004 39.1001 5.60004 39.7001C5.20004 39.8001 4.90004 40.0001 4.80004 40.2001C4.70004 40.0001 4.40004 39.9001 4.00004 40.0001C1.70004 40.6001 0.500044 42.4001 1.50004 44.7001C1.60004 45.0001 1.80004 45.3001 2.00004 45.6001C-1.59996 47.7001 1.30004 52.4001 4.70004 53.0001C6.30004 54.8001 7.30005 57.0001 8.40005 59.2001C8.50005 59.3001 8.50004 59.4001 8.60004 59.5001C8.30004 59.5001 8.00004 59.6001 7.80004 59.7001C7.60004 59.8001 7.50004 60.1001 7.50004 60.3001C9.00004 65.7001 10.7 71.3001 13 76.6001C13.9 78.8001 15 81.0001 16.2 83.1001C19 88.0001 22.5 92.4001 27.3 95.8001C39.3 104.2 57 101.9 68.5 93.7001C66.5 104.5 65 115.5 63.9 126.4C62.5 139.5 61.6 152.8 62 166.1C62 166.2 62.3 166.2 62.7 166.2C63.9 166.9 64.5 168.4 65.9 169.2C67.4 170 69.1 170.4 70.9 170.6C71 170.6 71.1 170.6 71.2 170.6C71.4 170.6 71.6 170.6 71.9 170.6C70.6 181.2 73.4 191.9 76.6 201.9C81.4 217.1 88 231.8 94.5 246.3C94.5 246.4 94.6001 246.4 94.6001 246.4C89.9001 249.5 84.2 250.8 79.7 254.3C78.5 255.2 77.2001 256.6 78.1001 258.1C78.7001 259.2 81.9 259.1 82.9 259.2C89.5 259.7 96.1001 258.9 102.6 258.3C102.9 258.3 103.1 258.2 103.4 258.2C103.9 258.2 104.4 258.1 104.9 258C107 257.5 109.3 256.5 110.5 254.7C112.6 251.4 111.1 247.6 109.5 244.4C109.5 244.3 109.4 244.3 109.3 244.2C110 243.9 110.7 243.5 111.3 243.1C111.5 243.8 113.1 243.3 113 242.7C109.6 229.4 103.9 216.8 101.2 203.3C99.9 197.2 99.5 191 99.5 184.7C99.5 182.3 99.6 180 99.9 177.6C100 176.7 99.9 174.8 100.4 174C100.4 173.9 100.5 173.9 100.5 173.9C103.1 176.8 105.4 179.7 107.2 183.4C112.1 193.5 115.3 204.6 119.2 215.1C121.8 222 124.5 229 127.3 235.8C127.7 236.9 129.4 242.6 131.2 244.4C130.8 244.6 130.6 244.8 131.1 244.9C131.5 245 131.9 245 132.3 245.1C131.4 258.4 147.9 256 156.5 256.8C159.1 257.1 166.8 257.6 164.7 252.7C163.4 250.6 160.4 249.2 158.6 248.3ZM182.8 86.6001C182.8 82.5001 183.4 79.3001 185.7 76.0001C186.7 74.7001 190.4 68.6001 192.1 71.4001C193.3 73.4001 192.2 76.6001 191.6 78.6001C190.9 81.1001 189.7 84.2001 187.7 85.9001C187 86.5001 188.7 86.3001 189 86.0001C190.3 84.9001 192.6 80.9001 193.7 77.1001C194 77.0001 194.3 76.9001 194.5 76.8001C195.5 75.5001 196.9 74.6001 198.3 73.7001C199 73.3001 200 72.7001 200.8 72.8001C201.5 72.9001 202.2 73.7001 202.1 74.5001C202 75.6001 200.6 76.6001 199.6 77.3001C199.5 77.4001 199.4 77.4001 199.3 77.5001C199.1 77.6001 199 77.7001 198.9 77.8001C197.9 78.5001 196.7 79.2001 195.8 80.1001C195.1 80.8001 196.7 80.7001 197.1 80.4001C197.6 79.9001 198.7 79.2001 199.9 78.5001C200.1 78.5001 200.2 78.5001 200.4 78.4001C201.4 78.0001 203 76.3001 204 77.4001C204.6 78.1001 203.4 79.2001 203 79.6001C201.3 81.2001 199 82.3001 196.9 83.2001C195.8 83.6001 196.8 84.6001 197.7 84.2001C199.5 83.5001 201.6 82.5001 203.3 81.2001C204.7 81.7001 202.5 83.5001 201.8 84.1001C200.2 85.4001 198.4 86.5001 196.6 87.5001C195.6 88.0001 196.5 88.6001 197.3 88.2001C199 87.3001 200.7 86.3001 202.2 85.2001C205.7 85.7001 201.3 89.7001 200.1 90.7001C197.4 93.0001 192.9 96.4001 189.1 96.3001C188.9 96.3001 188.1 96.6001 187.9 96.8001C186.7 93.1001 185.2 89.6001 182.6 86.9001C182.6 86.8001 182.8 86.7001 182.8 86.6001ZM104.4 49.3001C104.5 49.3001 104.7 49.3001 104.8 49.4001C107.3 50.0001 108.3 53.1001 107.9 55.7001C107.8 56.1001 109 55.9001 109.4 55.6001C125 55.5001 134.2 69.5001 142.2 80.7001C144.3 83.6001 146.4 86.6001 148.4 89.6001C150.2 92.3001 151.7 95.6001 154.2 97.7001C156.6 99.8001 159.9 99.3001 162.6 98.2001C166.2 96.8001 169.4 93.9001 172.2 91.3001C173.5 90.1001 174.7 88.8001 176 87.4001C176.4 87.0001 176.8 86.5001 177.3 86.1001C177.6 85.8001 177.7 85.7001 177.8 85.7001C177.7 85.7001 177.4 85.9001 176.9 85.7001C177.2 85.8001 177.7 85.7001 178.1 85.5001C178.2 85.4001 178.3 85.3001 178.4 85.3001C178.4 85.3001 178.4 85.3001 178.5 85.3001C181.2 87.1001 183 89.5001 184.4 92.3001C185.4 94.3001 186.1 96.4001 186.8 98.5001C186.8 98.6001 186.9 98.7001 187 98.7001C180.5 107.7 169.2 114.5 158.1 114.8C154.4 114.9 150.8 114.3 147.3 112.8C145.5 112 143.7 111 142 109.7C136.5 105.5 133.2 99.0001 129.6 93.2001C128 90.5001 126.3 87.9001 124.7 85.2001C124.2 84.4001 123.7 83.5001 123.2 82.6001C123.2 82.4001 123.2 82.3001 123.2 82.1001C123.2 81.8001 122.9 81.7001 122.5 81.7001C122.5 81.6001 122.4 81.6001 122.4 81.5001C122.2 81.3001 121.7 81.5001 121.6 81.5001C120.6 81.8001 120.8 82.2001 121.7 82.0001C120.8 82.2001 120.9 82.0001 121.3 82.6001C121.4 82.8001 121.5 82.9001 121.6 83.1001C121.8 88.5001 123.2 94.0001 124.3 99.2001C126.3 108.5 128.5 117.7 130.8 126.9C133 135.8 135.3 144.8 137.8 153.7C139.1 158.2 140 163.2 142 167.5C138 168.9 133.5 169.5 129.4 170.1C128 170.3 126.5 170.5 124.9 170.7C122.4 171 119.8 171.1 117.4 170.8C116.8 170.7 116.2 170.6 115.7 170.5C114.9 170.3 114.1 170 113.4 169.7C113.4 169.6 113.5 169.6 113.5 169.5C113.8 168.5 113.6 167.1 113.7 166.5C113.9 162.8 114 159.1 114.1 155.4C114.4 144.9 114.5 134.4 114.6 123.9C114.7 100.6 111.7 77.4001 106.3 54.7001C105.9 53.1001 105.5 51.6001 105.1 50.0001C105.1 49.8001 105 49.7001 105 49.5001C105 49.5001 105 49.4001 104.9 49.4001C104.4 49.3001 104.4 49.3001 104.4 49.3001ZM103.5 9.70006C108.7 9.50006 114.8 9.60006 119.3 12.6001C121.1 13.8001 122.9 16.2001 123.5 18.1001C124.3 20.7001 118.1 19.2001 116.8 19.3001C116.3 19.3001 115.6 19.9001 116.1 20.4001C121.1 25.2001 125.7 30.9001 124.6 38.3001C123.7 43.9001 116.7 39.6001 113.8 38.3001C113.4 38.1001 112.5 38.4001 112.5 38.9001C112.5 41.3001 113.2 44.5001 111.8 46.5001C109.9 49.2001 104.3 43.8001 102.9 42.4001C102.8 42.3001 102.5 42.2001 102.3 42.2001C101.8 41.0001 101.4 39.8001 101.4 38.5001C101.4 37.7001 103.3 36.8001 103.8 36.3001C105 35.3001 105.9 33.6001 106.5 32.2001C107.8 29.5001 107.1 25.9001 103.6 25.6001C102.3 25.5001 101.1 25.7001 100 26.3001C98.9 26.3001 97.7001 26.2001 96.6001 26.2001C93.2001 21.2001 96.9 10.5001 102.8 9.80006C103.2 10.0001 103.4 9.90006 103.5 9.70006ZM98.7 27.7001C98.6 27.8001 98.5 28.0001 98.4 28.1001C98.2 28.0001 98 27.8001 97.8 27.7001C98.1001 27.7001 98.4 27.7001 98.7 27.7001ZM81.1001 4.80006C87.2001 0.900063 99.5 1.00006 102.5 8.70006C102.4 8.80007 102.3 8.80007 102.3 8.90007C96 10.4001 91.7001 20.5001 94.6001 26.3001C94.1001 26.3001 93.5 26.3001 93 26.3001C92.9 26.3001 92.9 26.3001 92.8 26.3001C92.7001 25.7001 92.6 25.1001 92.5 24.6001C91.2 19.9001 85 21.0001 81.4 21.1001C81.3 21.1001 81.2001 21.1001 81.1001 21.2001C81.0001 21.2001 80.9 21.2001 80.8 21.2001C80.8 21.2001 80.8 21.2001 80.7 21.2001C80.3 21.2001 79.9 21.4001 79.8 21.6001C79.1001 22.8001 78.9 24.0001 78.9 25.3001C78.3 25.3001 77.6 25.3001 77 25.3001C77.1 23.9001 76.8 22.4001 76.3 21.2001C76.2001 21.1001 76 21.0001 75.7 21.1001C74.3 21.1001 72.6 20.9001 71.1 21.1001C72.4 14.5001 75.5001 8.30006 81.1001 4.80006ZM91.2 30.2001C91.2 29.6001 91.3 28.8001 91.2 27.9001C91.3 28.7001 91.3 29.5001 91.2 30.2001ZM87.5 32.4001C86.9 32.3001 86.3 32.2001 85.7 31.9001C87.2 29.3001 88.8 26.7001 90.5 24.2001C90.7 24.6001 90.9001 25.4001 91.1001 26.4001C89.8 28.4001 88.6 30.4001 87.5 32.4001ZM90.5 32.0001C90.3 32.2001 90.1 32.3001 89.9 32.4001C90.1 32.2001 90.3 32.1001 90.5 32.0001ZM83.3 30.6001C82.8 30.2001 82.3 29.7001 81.9 29.2001C83 26.8001 84.1001 24.3001 85.1001 21.9001C85.1001 21.8001 85.2001 21.7001 85.3 21.6001C85.8 21.6001 86.4 21.7001 86.9 21.8001C87 22.0001 87 22.2001 86.9 22.4001C85.7 25.1001 84.5 27.8001 83.3 30.6001ZM73.5 34.0001C73.8 34.8001 74.5 35.2001 75.3 35.4001C73.3 35.6001 71.6 36.3001 70.6 37.5001C70.3 36.0001 70.2 34.5001 70.1 33.0001C70.4 32.9001 70.8 32.9001 71 32.8001C71.9 32.5001 72.8 32.2001 73.6 31.7001C73.3 32.5001 73.3 33.3001 73.5 34.0001ZM72.9 31.1001C72.3 31.6001 71.6001 32.0001 70.8 32.2001C71.6001 28.7001 72.3 25.2001 72.6 21.6001C73.2 21.6001 73.9 21.7001 74.4 21.7001C74.2001 24.9001 73.6 28.0001 72.9 31.1001ZM70.8 21.7001C71.2001 21.6001 71.6 21.6001 72 21.6001L70.8 21.7001ZM65.4 37.0001C65.2001 36.6001 64.3 37.0001 64.1 37.1001C60.1 39.1001 62.1 31.6001 62.5 29.9001C63.3 27.1001 64.3 24.2001 65.7 21.6001C65.9 21.2001 64.5 21.6001 64.4 21.6001C61 23.3001 61.3 20.8001 62.5 18.8001C64.5 15.5001 68.5 12.7001 72.3 12.9001C71 15.5001 70 18.4001 69.3 21.3001C68 21.6001 66.9 22.3001 66.1 23.6001C64.9 25.6001 64.4 31.4001 66.7 32.8001C67.1 33.0001 67.6 33.1001 68.2 33.2001C68.4 37.4001 69.3 41.5001 71.4 44.6001C66.2001 45.1001 66.9 40.6001 65.4 37.0001ZM69.2 22.0001C68.6 24.9001 68.1 28.5001 68.2 32.2001C66.7 31.5001 67 27.6001 67 26.5001C67.1 25.4001 67.3 24.3001 67.8 23.3001C68.1001 22.7001 68.6 22.3001 69.2 22.0001ZM71.5 40.4001C70.8 34.3001 79.4 36.0001 82.7 37.6001C83.7 38.1001 84.5 38.8001 84.8 39.8001C85.8 42.7001 80.1001 41.0001 79.6001 40.9001C78.8 40.7001 77.9 40.4001 77 40.5001C75.1 40.9001 73.2 42.0001 71.5 40.4001ZM90.4 48.9001C88.3 47.5001 85.3 47.8001 82.9 47.9001C79.2 48.0001 75.8 47.6001 73.3 44.4001C72.8 43.7001 72.3 42.9001 71.9 42.1001C72.5 42.3001 73.2001 42.3001 73.9 42.1001C75.9 41.6001 77.1001 41.4001 79.1001 41.9001C80.2001 42.2001 81.2001 42.4001 82.3 42.5001C85.6001 42.7001 87.9 39.6001 84.8 37.4001C83.2001 36.3001 80.2001 35.4001 77.3 35.3001C77.8 35.0001 77.9 34.3001 77 34.3001C74.5 34.5001 74.9 31.9001 75.7 30.4001C75.8 30.1001 75.7 29.9001 75.5 29.8001C76.2 28.7001 76.7001 27.5001 76.8 26.2001C77.3 26.2001 77.8 26.2001 78.3 26.2001C78.5 26.2001 78.6001 26.2001 78.8 26.1001C79 27.6001 79.6 29.0001 80.5 30.1001C82.7 33.0001 87.1 33.6001 90.4 32.7001C92.6 32.1001 93 29.7001 92.9 27.4001C93.7 27.4001 94.6 27.4001 95.4 27.5001C96.2 28.4001 97.2 29.2001 98.5 29.7001C99.2 30.0001 100.4 28.9001 99.5 28.6001C99.4 28.6001 99.3 28.5001 99.2 28.5001C99.5 28.4001 99.7001 28.3001 99.8 28.2001C99.9 28.0001 100 27.9001 100.1 27.8001C100.3 27.8001 100.5 27.8001 100.6 27.8001C101.3 27.8001 101.7 27.2001 101.4 26.8001C102.8 26.3001 104.6 27.1001 105.4 28.6001C106.1 29.9001 105.5 31.5001 105 32.7001C104.1 35.0001 102.5 36.6001 100.4 37.9001C99.2 38.6001 100 40.7001 100.2 41.7001C100.8 44.3001 102.5 46.3001 102.8 48.9001C102.6 49.1001 102.5 49.3001 102.8 49.3001C102.8 49.4001 102.8 49.4001 102.8 49.5001C99.3 49.7001 97.6 52.4001 96.9 55.4001C95.9 55.5001 94.9 55.6001 93.9 55.7001C93.9 54.4001 93.6 53.0001 92.9 51.8001C93.3 51.4001 93 51.3001 92.5 51.3001C91.9 50.3001 91.2 49.5001 90.4 48.9001ZM82.9 124C83.1 120.6 83.3 117.2 83.5 113.8C84 106.5 85.4 99.3001 86.9 92.2001C88.4 85.5001 90.1 78.8001 92 72.1001C92.8 69.0001 94.4001 65.5001 94.6001 62.3001C95.0001 62.3001 95.3 62.2001 95.6001 62.1001C96.0001 62.0001 96.4 61.8001 96.7 61.5001C96.9 66.3001 96.3 71.3001 96 76.1001C95.5 84.3001 94.9 92.5001 94.3 100.7C93.8 107.4 93.3 114 92.8 120.7C92.7001 122 92.6 123.3 92.5 124.6C92.5 125.1 91.4001 126.5 91.1001 127.1C90.0001 129.1 88.8 131 87.6001 132.9C86.7001 131.8 86 130.3 85.2 129.2C84.7 128.4 83.8 126.4 82.8 125.8C82.9 125.2 82.8 124.6 82.9 124ZM96.5 60.5001C96.2 60.8001 95.9001 61.2001 95.6001 61.5001C95.5001 61.6001 95.4 61.6001 95.3 61.7001H95.2C94.7 61.5001 94.3 60.8001 94.1001 60.3001C93.6001 59.2001 93.5 57.9001 93.4 56.7001C94.5 56.6001 95.7001 56.4001 96.6001 56.4001C96.4001 57.7001 96.3 59.0001 96.3 60.2001C96.3 60.3001 96.4 60.4001 96.5 60.5001ZM91.8 53.2001C92 54.0001 92.2 54.9001 92.2 56.0001C92.2 56.1001 92.2001 56.2001 92.3 56.3001C92.2001 56.4001 92.2001 56.5001 92.3 56.6001C92.1001 56.7001 91.9 56.8001 91.9 56.9001C91.9 58.6001 92.1 60.8001 93.4 62.0001C93.4 62.0001 93.4 62.0001 93.5 62.1001C93.3 62.2001 93.1001 62.4001 93.1001 62.6001C92.9001 65.7001 91.5 69.0001 90.7 71.9001C88.9 78.5001 87.2 85.1001 85.7 91.7001C84.1 98.8001 82.7 106.1 82.2 113.4C81.9 116.9 81.8 120.4 81.6001 123.9C81.6001 124.5 81.6 125.4 81.5 126.1C81.5 126.1 81.5 126.1 81.5 126.2C81.4 126.4 81.4 126.6 81.4 126.9C81.4 127.2 81.8 127.3 82.1001 127.2H82.2C82.6 127.6 83 128.2 83.3 128.8C83.7001 129.5 84 130.2 84.3 130.6C85.1001 131.8 85.8 133.3 86.8 134.3C86.9 134.4 87.0001 134.4 87.1001 134.5C87.0001 135 88.4 134.9 88.7 134.4C90.1 132.3 91.3 130.2 92.6001 128C93.1001 127.2 94.4 125.7 94.5 124.7C94.6 123.6 94.7001 122.5 94.8 121.4C95.3 114.7 95.8 108.1 96.3 101.4C96.9 93.0001 97.5001 84.6001 98.1001 76.2001C98.4001 71.1001 99 66.0001 98.7 60.9001C98.7 60.7001 98.5 60.6001 98.3 60.6001C98.4 60.5001 98.5001 60.3001 98.6001 60.2001C98.7001 60.1001 98.5 60.1001 98.2 60.1001C98.2 56.7001 98.7 51.2001 103 51.0001C103.1 51.0001 103.1 51.0001 103.2 51.0001C109.3 73.6001 112.6 97.4001 112.6 120.8C112.6 126.2 112.6 131.7 112.5 137.1C112 137.2 110.7 137.4 109.2 137.6C105.3 138 101.3 138.3 97.3 138.5C95.6001 138.6 93.8 138.6 92 138.7C89.7 138.7 87.2001 138.6 85.3 138.6C83.4 138.5 81.4001 138.2 79.6001 137.8C79.9001 133.6 80.1 129.5 80.4 125.3C81.6 107.3 83.1 89.7001 86.7 72.0001C87.5 68.1001 88.4 64.1001 89.5 60.2001C89.9 57.8001 90.5 55.1001 91.8 53.2001ZM111.3 142.3C109.8 142.7 108.3 143.1 106.7 143.3C108.5 142.9 110.1 142.6 111.3 142.3ZM15.8 44.8001C15.9 44.8001 16 44.9001 16.1 44.9001C15.9 45.2001 15.6 45.3001 15 44.7001C15.2 44.9001 15.5 44.9001 15.8 44.8001ZM6.40005 36.4001C6.60005 35.2001 7.90005 35.2001 8.90005 35.2001C8.80005 35.3001 8.80005 35.4001 8.90005 35.5001C10.5 37.0001 12.4 38.2001 14.1 39.6001C14.4 39.8001 14.8 40.1001 15.1 40.5001C15 41.1001 14.8 41.7001 14.7 42.2001V42.3001C13.7 42.5001 12.3 42.4001 11.8 42.3001C9.80004 41.9001 8.00004 40.4001 7.00004 38.7001C6.50004 38.1001 6.30005 37.2001 6.40005 36.4001ZM4.10004 41.1001C4.50004 41.0001 4.70004 40.8001 4.70004 40.6001C4.70004 40.6001 4.80004 40.6001 4.80004 40.7001C6.50004 41.6001 8.10005 42.6001 9.40005 43.9001C10 44.5001 10.5 45.1001 10.7 45.9001C11 47.0001 9.60004 47.4001 8.80004 47.6001C6.70004 48.1001 4.70004 46.7001 3.50004 45.2001C2.50004 43.7001 2.00004 41.7001 4.10004 41.1001ZM5.20004 51.8001C3.20004 51.6001 0.300042 48.0001 2.60004 46.6001C2.90004 46.9001 3.20004 47.2001 3.60004 47.5001C3.10004 47.9001 3.00005 48.6001 3.90005 48.5001C5.70005 48.2001 7.80004 52.1001 5.20004 51.8001ZM6.50004 52.8001C8.40004 52.1001 8.30004 50.3001 7.30004 48.8001C7.40004 48.8001 7.50004 48.8001 7.60004 48.8001C9.60004 48.9001 13.1 47.8001 12.4 45.2001C12.2 44.5001 11.7 43.8001 11.2 43.2001C12.2 43.3001 13.8 43.3001 15.1 43.0001C14.9 43.4001 14.8 43.8001 14.7 44.1001C14.7 44.2001 14.7 44.3001 14.8 44.4001C14.4 44.9001 14.4 45.8001 14.3 46.3001C14.1 47.6001 13.9 48.9001 13.7 50.2001C13.6 50.7001 13.5 51.2001 13.5 51.8001C13.5 52.0001 13.4 52.2001 13.4 52.4001C13.3 52.8001 13.2 52.8001 13.5 52.5001C12.5 53.0001 14 53.3001 14.5 53.0001C15.4 52.5001 15.3 50.3001 15.4 49.4001C15.5 48.4001 15.7 47.4001 15.9 46.3001C16 45.9001 16.1 45.5001 16.2 45.1001C16.2 45.0001 16.2 44.9001 16.3 44.9001C17.7 45.2001 19.1 45.0001 20.5 44.4001C21.6 44.0001 20.6 43.3001 19.8 43.6001C17.1 44.2001 16.1 43.8001 16.9 42.6001C17.1 42.3001 17.3 41.9001 17.5 41.6001C18.2 40.6001 19.2 39.7001 20.2 39.0001C22.5 37.5001 25.5 38.0001 26.3 40.9001C27.3 44.8001 24.8 49.4001 24.2 53.2001C24.2 53.4001 24.2 53.5001 24.3 53.5001C20.5 54.1001 16.7 55.6001 13.2 57.2001C12.1 57.7001 11 58.2001 10 58.7001C9.90004 58.6001 9.90004 58.5001 9.80004 58.4001C8.80004 56.5001 7.90004 54.5001 6.50004 52.8001ZM66.3 168C65.4 167.3 64.9 166.1 63.9 165.5C63.8 165.4 63.6 165.4 63.4 165.5C63 152.6 64 139.7 65.2 126.9C66.3 115.3 67.9 103.8 70.1 92.3001C70.1 92.3001 70.2 92.3001 70.2 92.2001C70.6 91.9001 70.5 91.6001 70.3 91.4001C71.3 86.1001 72.4 80.9001 73.7 75.7001C73.8 75.3001 72.2 75.6001 72.1 76.0001C70.8 81.3001 69.7 86.5001 68.7 91.9001C57 101.2 38.8 103.1 26.7 93.6001C16.7 85.8001 12.7 72.3001 9.30004 60.6001C9.80004 60.7001 10.6 60.4001 10.6 59.9001C16.1 57.1001 23 54.0001 29 54.5001C29.2 54.5001 29.5 54.4001 29.6 54.3001C32 64.5001 35.7 85.8001 49.9 84.4001C51.1 84.3001 52.2 84.0001 53.3 83.6001C54.1 83.3001 54.9 82.9001 55.6 82.5001C59.6 80.1001 62.6 76.0001 65.2 72.1001C69.3 66.0001 74.5 56.1001 83.3 58.6001C83.3 58.6001 83.3 58.6001 83.4 58.6001C83.4 58.7001 83.3 58.8001 83.3 58.8001C83 59.7001 84.6 59.6001 84.9 59.0001C85.6 57.2001 87.7 51.3001 90.4 52.8001C88.5 55.6001 87.7 59.6001 86.9 62.6001C85.2 68.9001 84.1 75.4001 82.9 81.8001C81.6 89.0001 80.8 96.1001 80.2 103.3C79.2 114.5 78.4 125.6 77.7 136.8C77 136.6 75.8 137.7 76.8 137.9C77.1001 138 77.4001 138.1 77.6001 138.1C77.5001 139.6 77.4 141.2 77.3 142.7C77.1001 142.8 76.9 142.9 76.8 143.1C76.6001 143.3 76.9 143.4 77.3 143.4C77 149.1 76.7 154.9 76.5 160.6C76.4 162.7 76.4 164.8 76.4 166.9C76.4 167.6 76.3 168.5 76.4 169.3C76.4 169.4 76.4 169.4 76.4 169.4C76.1 169.4 75.8 169.4 75.5 169.4C72.4 169.9 68.9 169.8 66.3 168ZM109.1 253.7C109 254.2 108.8 254.6 108.5 254.9C108 255.7 107.2 256.3 106.3 256.7C103.7 257.9 99.9 257.5 97.3 257.8C92.1001 258.4 87 258.9 81.7 258.3C75.7 257.6 81.6001 253.5 84.1001 252.2C87.8 250.2 91.9 248.9 95.4 246.6C95.5 246.5 95.5 246.5 95.5 246.5C98 246.5 100.4 246.4 102.8 246C104.3 245.8 105.8 245.4 107.2 244.9C107.2 244.9 107.2 245 107.3 245C108.8 247.6 110 250.6 109.1 253.7ZM133 244.4C132.9 244.4 132.8 244.4 132.7 244.3C132.6 244.1 132.2 243.9 131.7 244.1C132.5 243.8 132.6 244.3 132.2 243.7C132 243.4 131.8 243 131.6 242.6C131.1 241.6 130.6 240.6 130.2 239.5C128.9 236.5 127.7 233.5 126.5 230.5C124.1 224.4 121.9 218.1 119.4 212C115.1 201.8 112.6 191 107.5 181.1C105.7 177.7 103.3 174.9 100.7 172.1C97.6 168.9 95.6 165.3 94.4 161C94.2 160.4 92.6 160.8 92.7 161.4C93.8 165.4 95.5 168.8 98.3 171.9C98.7001 172.4 99.1001 172.8 99.6001 173.3C99.2001 173.3 98.8 173.4 98.6001 173.6C97.1001 175.6 97.6 180.1 97.5 182.4C97.3 188.5 97.6001 194.7 98.6001 200.7C100.9 215.1 107.2 228.4 110.8 242.4C110.6 242.4 110.3 242.5 110.2 242.6C105.9 245.6 100.9 245.6 95.8 245.6H95.7C89.4 231.6 83.2 217.5 78.4 202.9C75 192.6 71.9 181.4 73.2 170.5C74.4 170.5 75.6001 170.4 76.8 170.3C77.1001 170.8 78.6 170.3 78.4 169.8C77.9 168.4 78.2 166.4 78.2 165C78.3 161.5 78.4001 158 78.6001 154.5C78.8 150.8 79 147.2 79.2 143.5C80.6 143.5 88.5 143.8 94.4 144.4C95.9 144.5 97.8 144.5 99.7 144.3C104 144.3 108.3 144 112.3 142.8C112.2 145.9 112.2 149 112.1 152.1C112 156.3 111.9 160.4 111.7 164.6C111.6 165.8 111.6 167.1 111.5 168.3C111.5 168.7 111.4 169.1 111.4 169.4C111.3 170 111.2 169.9 111.6 169.7C111.4 169.8 111.3 169.9 111.3 170.1C111.2 170.2 111.3 170.3 111.4 170.4C116 172.8 122.5 171.8 127.4 171.3C128.7 171.2 130 171 131.3 170.8C131.2 170.8 131.1 170.9 131 170.9C130 171.5 130.4 173.3 130.6 174.2C131.1 178.1 132.1 182 132.9 185.8C134.6 193.8 136.2 201.6 138.8 209.4C141.3 216.9 144.1 224.3 146.9 231.7C147.9 234.4 148.9 237.1 149.9 239.8C150.2 240.5 151.1 242.4 151.1 243.4C150.8 243.5 150.5 243.6 150.3 243.7C149.8 244.3 149.1 244.8 148.4 245.2C147.8 245.5 147.2 245.7 146.5 245.8C142.5 246.6 137.2 245.2 133.4 244.4C133.2 244.4 133.1 244.4 133 244.4ZM161 255.9C158.8 256.2 156.5 255.7 154.3 255.5C150.1 255.1 145.9 255.7 141.7 254.8C136.6 253.8 133.3 250.6 133.4 245.4C133.4 245.4 133.4 245.4 133.4 245.3C134.1 245.4 134.8 245.6 135.5 245.7C140.2 246.6 145.7 247.5 149.5 245.4C153.3 247.4 157.5 248.7 161 251.3C162.7 252.7 164.2 255.5 161 255.9ZM200.4 185.5C200.7 185.3 200.8 184.9 200.3 184.8C198 184.1 192.5 185.4 194.6 188.7C196.7 192.1 202.5 189.7 201.1 185.8C201 185.6 200.7 185.5 200.4 185.5ZM198.7 189.1C197.7 189.8 196.4 188.6 196 187.8C195 185.9 198.2 185.5 199.4 185.8C199.5 185.8 199.5 185.8 199.6 185.8C199.5 185.9 199.4 186.1 199.5 186.3C199.8 187.3 199.6 188.4 198.7 189.1ZM201.1 214.5C201 214.3 200.7 214.2 200.4 214.2C200.7 214 200.8 213.6 200.3 213.5C198 212.8 192.5 214.1 194.6 217.4C196.7 220.8 202.6 218.3 201.1 214.5ZM199.4 214.5C199.5 214.5 199.5 214.5 199.6 214.5C199.5 214.6 199.4 214.8 199.5 215C199.9 216 199.7 217.1 198.8 217.8C197.8 218.5 196.5 217.3 196.1 216.5C195 214.5 198.2 214.1 199.4 214.5ZM200.4 239.4C200.7 239.2 200.8 238.8 200.3 238.7C198 238 192.5 239.3 194.6 242.6C196.7 246 202.5 243.6 201.1 239.7C201 239.5 200.7 239.4 200.4 239.4ZM198.7 242.9C197.7 243.6 196.4 242.4 196 241.6C195 239.7 198.2 239.3 199.4 239.6C199.5 239.6 199.5 239.6 199.6 239.6C199.5 239.7 199.4 239.9 199.5 240.1C199.8 241.2 199.6 242.3 198.7 242.9Z" fill="#4346D5"/>
</svg>
