<svg width="277" height="217" viewBox="0 0 277 217" fill="none" xmlns="http://www.w3.org/2000/svg">
<path d="M124.799 85.7002C122.599 87.0002 120.299 88.4002 118.099 89.7002C117.999 89.8002 117.499 90.0002 117.199 90.2002C117.399 90.1002 117.599 89.9002 117.499 89.6002V89.5002L124.799 85.7002Z" fill="#A8D2B5"/>
<path d="M98.1 216.4H84C84.5 216.3 85.1 215.9 85 215.8C84.8 215.7 85.4 213.2 85.5 212.9C89.3 193.4 93.6 173.9 97.4 154.4C97.4 161.7 97.6 169.1 97.6 176.3C97.6 189.7 97.4 203.1 98.1 216.4Z" fill="#D9AB79"/>
<path d="M96.4998 143C96.0998 143.1 95.6998 143.2 95.2998 143.2L96.4998 143Z" fill="#A8D2B5"/>
<path d="M97.5994 143.7C94.0994 164.7 89.0994 185.5 85.0994 206.4C84.6994 209.6 83.2994 213.2 83.3994 216.4H64.5994C67.1994 215.1 67.0994 208.4 67.2994 206.3C69.7994 188 67.8994 170.1 61.8994 152.7C70.3994 157.4 82.5994 156.5 90.7994 151.6C92.4994 150.2 91.7994 146.3 92.3994 144.3C94.0994 144.5 95.9994 144.4 97.5994 143.7Z" fill="#D9AB79"/>
<path d="M66.5992 187.4C66.4992 192.1 66.2992 196.7 65.8992 201.3C65.4992 205.7 65.3992 210.2 64.1992 214.5L66.5992 187.4Z" fill="#A8D2B5"/>
<path d="M65.0996 110.8C65.2996 111.4 65.5996 111.9 65.3996 112.5C65.2996 112 65.1996 111.4 65.0996 110.8Z" fill="#A8D2B5"/>
<path d="M63.1992 163.6C64.0992 166.9 65.0992 170.3 65.7992 173.8C65.2992 171.8 61.8992 161.6 61.9992 159.7C62.3992 161 62.7992 162.3 63.1992 163.6Z" fill="#A8D2B5"/>
<path d="M58.5996 148.5C58.8996 148.4 59.2996 148.2 58.8996 148.2C58.9996 148.2 58.9996 148.2 59.0996 148.2C60.8996 137.3 64.1996 126.3 66.4996 115.4C66.9996 116.8 67.1996 120.4 69.1996 118.4C68.4996 116.1 67.8996 113.3 67.1996 111.2C62.9996 97.4 59.7996 82.6 64.5996 68.5C70.5996 69.5 76.3996 71.7 82.3996 72.9C78.5996 72.1 67.7996 85.2 73.5996 82.5C75.6996 77.5 79.6996 74.5 84.8996 73.6C126.3 90.6 102.9 99.9 140.2 77.9C141.8 80.8 144 83.2 145.7 86C145.8 86.2 146 86.2 146.3 86.2C146.3 86.2 146.3 86.3 146.2 86.3C136.4 93.2 128.8 106 117.1 109.1C112.1 108.8 107.5 105.4 103 103.5C97.5996 101 91.2996 98.9 86.4996 95.3C82.3996 95.2 88.4996 98.4 89.6996 99C89.6996 99.1 89.6996 99.2 89.7996 99.2C92.6996 115.8 93.4996 134.7 89.6996 151.8C79.4996 156.5 66.7996 156.6 58.5996 148.5Z" fill="#F7C34F"/>
<path d="M33.4996 65.3003C37.0996 65.7003 40.2996 67.3003 42.9996 69.8003C38.9996 75.7003 34.8996 83.3003 30.9996 89.4003C28.3996 82.4003 25.9996 75.4003 23.5996 68.4003C26.4996 66.8003 29.5996 66.0003 32.8996 65.7003C33.0996 65.6003 33.3996 65.5003 33.4996 65.3003Z" fill="#A8D2B5"/>
<path d="M34.8996 64.7001C34.4996 64.6001 33.9996 64.6001 33.5996 64.6001C33.9996 64.6001 34.4996 64.6001 34.8996 64.7001Z" fill="#A8D2B5"/>
<path d="M88.0001 42.3001C88.3001 42.3001 88.7001 42.5001 88.5001 42.9001C88.1001 43.6001 88.2001 44.3001 88.6001 45.0001C88.9001 45.6001 87.2001 46.1001 86.9001 45.5001C86.5001 44.6001 86.4001 43.7001 87.0001 42.9001C87.1001 42.4001 87.6001 42.2001 88.0001 42.3001ZM83.5001 39.7001C83.9001 39.9001 84.4001 39.8001 84.7001 39.6001C85.4001 39.2001 86.2001 38.9001 86.9001 38.6001C87.2001 38.5001 87.7001 38.2001 87.6001 37.8001C87.5001 37.4001 86.9001 37.4001 86.6001 37.5001C85.5001 37.9001 84.5001 38.3001 83.5001 38.9001C83.3001 39.1001 83.1001 39.5001 83.5001 39.7001ZM85.8001 51.4001C85.2001 51.2001 83.8001 52.0001 84.8001 52.4001C86.5001 53.0001 88.2001 53.0001 89.9001 52.7001C90.2001 52.6001 90.8001 52.5001 90.9001 52.1001C91.0001 51.7001 90.4001 51.6001 90.1001 51.7001C88.7001 51.9001 87.3001 52.0001 85.8001 51.4001ZM130.4 153.8C130 148 134.3 144.9 139.5 144.1C139.7 144 139.8 144 140 144C149.5 144.5 151.6 159.5 141.9 161.7C136.1 163 130.9 160 130.4 153.8ZM143.7 159.5C149.1 155.4 146.5 146 139.9 145.3C139.8 145.3 139.8 145.3 139.7 145.3C134.4 146 130.8 150.1 132.5 155.5C133.9 160 139.7 162.5 143.7 159.5ZM173 190.4C167.1 191.7 161.9 188.7 161.5 182.5C161.1 176.7 165.4 173.6 170.6 172.8C170.8 172.7 170.9 172.7 171.1 172.7C180.6 173.2 182.7 188.2 173 190.4ZM170.9 174C170.8 174 170.8 174 170.7 174C165.4 174.7 161.8 178.8 163.5 184.2C164.9 188.7 170.7 191.2 174.7 188.2C180.2 184.1 177.6 174.7 170.9 174ZM155.9 53.0001C151 49.8001 148.8 44.3001 148.7 38.5001C148.6 34.0001 149.8 29.3001 153.1 26.0001C156.9 22.1001 162 20.5001 167.3 19.9001C167.6 19.9001 167.7 19.9001 167.7 20.0001C168.3 20.0001 169 20.1001 169.6 20.2001C178 21.7001 183.1 29.7001 183.1 37.9001C183.1 46.2001 178.3 52.9001 170.2 54.9001C165.6 56.0001 159.9 55.6001 155.9 53.0001ZM159.3 53.3001C164.3 55.4001 170.8 55.5001 175.2 52.0001C186.7 43.1001 181.3 21.2001 166.1 20.6001H166C160.1 21.4001 154.5 24.1001 152 29.7001C150.3 33.7001 149.9 38.3001 150.9 42.5001C152 47.2001 154.7 51.4001 159.3 53.3001ZM155.2 38.7001C155.2 38.2001 153.5 38.5001 153.5 39.2001C153.5 41.4001 154 43.6001 154.7 45.7001C154.9 46.3001 156.6 45.8001 156.4 45.2001C155.7 43.1001 155.2 40.9001 155.2 38.7001ZM167.6 23.6001C163 23.5001 158.2 26.3001 155.6 30.0001C155.1 30.7001 156.8 30.7001 157.2 30.1001C159.3 27.1001 163.3 24.6001 167 24.7001C167.7 24.8001 168.7 23.7001 167.6 23.6001ZM275.2 113.7C274.7 114 273.7 114.1 273.7 113.8C273.7 113.8 273.7 113.8 273.7 113.7C245.2 113.7 216.7 114 188.2 114.2C173.7 114.3 159.1 114.4 144.6 114.5C137.4 114.5 130.2 114.6 123 114.6C122 114.6 117.2 115.3 116.6 114.4C116.2 113.7 117 111.2 116.4 111C115.7 110.8 117.3 110.1 117.8 110.2C119 110.5 118.2 112.1 118.1 113C118 114.2 127.2 113.7 128.2 113.7C135 113.7 141.8 113.7 148.7 113.6C162.9 113.5 177 113.4 191.2 113.3C218.7 113.1 246.2 112.8 273.7 112.8C273.7 75.8001 273.7 38.8001 273.7 1.7001C273.7 1.6001 273.7 1.5001 273.8 1.5001C221.7 1.5001 169.5 1.5001 117.4 1.5001C117.4 30.8001 117.4 60.2001 117.4 89.5001C117.4 89.6001 117.4 89.6001 117.4 89.7001C117.4 89.9001 117.3 90.0001 117.1 90.1001C117.4 89.9001 117.9 89.7001 118 89.6001C119.1 89.0001 120.1 88.4001 121.2 87.7001C122.4 87.0001 123.6 86.3001 124.8 85.6001C126.3 84.7001 127.9 83.8001 129.4 82.9001C131.9 81.4001 134.4 79.9001 137 78.4001C137.8 77.9001 138.6 77.4001 139.4 77.0001C139.3 76.9001 139.3 76.8001 139.4 76.7001C140.8 74.7001 142 71.9001 144.2 70.7001C145.6 69.9001 146.9 69.9001 148.1 70.3001C148.4 69.7001 148.7 68.9001 148.9 68.5001C149.6 67.0001 150.3 65.5001 151 64.0001C151.9 61.9001 152.9 59.8001 153.8 57.8001C150.9 56.1001 148.6 53.8001 146.9 51.1001C141.4 52.3001 138 59.3001 136.2 64.0001C134.3 69.1001 132.8 74.9001 133.4 80.4001C133.5 81.0001 131.7 81.3001 131.7 80.9001C130.9 74.3001 133 66.9001 135.9 61.1001C138.1 56.6001 141.4 51.8001 146.5 50.5001C143.5 45.4001 142.7 38.9001 143.9 32.9001C146.3 21.9001 155.8 16.7001 166.3 15.4001C166.5 15.2001 166.8 15.1001 167 15.2001C176.7 15.6001 184.6 22.2001 187.1 31.6001C189.1 39.2001 188 48.1001 182.4 54.0001C177.5 59.1001 170 61.4001 162.9 60.8001C163.2 66.5001 163.4 72.2001 164.6 77.7001C165.7 83.0001 168 91.6001 174.8 91.9001C183.9 92.3001 187 83.0001 187.7 75.6001C188.3 68.6001 187.5 61.2001 189.3 54.3001C190.4 50.1001 193.5 45.0001 198.1 44.0001C203.8 42.8001 208 48.7001 208.9 53.7001C210.1 60.5001 208.4 67.5001 209 74.4001C209.5 79.1001 210 85.9001 213.9 89.2001C216.8 91.6001 221.3 91.5001 223.8 88.4001C225.4 86.4001 226.3 83.9001 226.8 81.4001C227.8 76.5001 227.9 71.5001 228.5 66.6001C229.6 58.1001 228.4 49.4001 229.5 40.8001C230.4 33.4001 232.7 24.0001 241 21.8001C248.6 19.8001 254.3 23.8001 257.4 30.6001C261.5 39.8001 262.4 50.4001 262.8 60.3001C263.2 69.3001 262.9 78.4001 262.6 87.4001C262.6 88.0001 260.9 88.2001 260.9 87.9001C261.4 74.6001 261.8 61.1001 260 47.9001C259.1 41.5001 257.9 34.6001 254.6 29.0001C251.6 24.0001 245.8 20.0001 239.9 23.0001C231.5 27.2001 231 40.1001 230.8 48.2001C230.7 52.7001 230.8 57.2001 230.7 61.7001C230.6 65.6001 230 69.4001 229.7 73.3001C229.1 80.9001 227 94.0001 216.2 91.7001C211.3 90.7001 209.3 85.7001 208.5 81.3001C207.3 75.2001 207.5 69.3001 207.8 63.2001C208 59.6001 208.2 55.5001 206.8 52.0001C205.6 49.1001 202 43.2001 198 45.0001C192 47.6001 190.7 55.3001 190.4 61.0001C189.9 70.0001 191.6 82.6001 184.3 89.3001C181.7 91.7001 177.2 93.3001 173.6 92.7001C169.9 92.1001 167.4 89.5001 165.8 86.2001C162.1 78.3001 162 69.1001 161.5 60.5001C160.8 60.4001 160.2 60.3001 159.5 60.1001C158.6 62.1001 157.7 64.1001 156.8 66.1001C156.2 67.5001 155.6 68.9001 154.9 70.3001C154.7 70.8001 154.5 71.4001 154 71.7001C153.9 71.7001 153.8 71.8001 153.7 71.8001C154.7 71.8001 155.7 71.8001 156.6 72.0001C157.1 72.1001 158.3 72.2001 158.4 72.9001C158.6 73.7001 157.6 74.5001 157.1 75.0001C157.2 75.1001 157.2 75.2001 157.2 75.3001C157.2 76.5001 156.6 77.5001 155.7 78.1001C155.7 78.2001 155.7 78.3001 155.6 78.4001C153.9 81.9001 150.5 83.9001 147.8 86.5001C147.7 86.6001 147.6 86.7001 147.4 86.7001C147.2 86.9001 146.8 87.1001 146.5 87.1001C147.3 87.1001 147.2 86.9001 146.7 87.4001C146.3 87.7001 146 88.0001 145.6 88.3001C144.7 89.1001 143.8 89.9001 143 90.7001C140.7 92.8001 138.4 94.9001 136.1 97.0001C134.2 98.8001 132.2 100.7 130.2 102.6C175.8 102.6 221.3 102.6 266.9 102.6C267.7 102.6 266.1 103.3 265.8 103.3C220.4 103.3 174.9 103.3 129.5 103.3C127 105.5 124.4 107.6 121.5 109.1C114.8 112.5 108.5 107.5 102.5 104.8C100.8 104 99.0001 103.3 97.2001 102.5C98.0001 109.3 99.2001 116 100 122.7C100.7 129.3 101.5 136.3 100.1 142.9C100.1 143.1 99.9001 143.2 99.8001 143.3C99.0001 154.6 99.6001 166.2 99.7001 177.5C99.7001 190.4 99.6001 203.3 100.1 216.1C100.1 216.7 98.6001 217.1 98.4001 216.6C98.4001 216.6 98.4001 216.6 98.4001 216.5C97.8001 203.2 98.0001 189.8 98.0001 176.5C98.0001 169.2 97.7001 161.9 97.8001 154.6C97.6001 155.3 97.5001 156.1 97.3001 156.8C95.7001 165 94.0001 173.2 92.3001 181.4C90.7001 189.3 89.0001 197.1 87.4001 205C86.8001 207.7 86.3001 210.4 85.8001 213.2C85.7001 213.5 85.1001 216 85.3001 216.1C85.4001 216.2 84.8001 216.5 84.3001 216.7C84.1001 216.8 83.8001 216.8 83.7001 216.7C83.3001 216.4 84.0001 214.3 84.0001 214C84.4001 211.6 84.9001 209.2 85.4001 206.8C87.0001 198.9 88.6001 191 90.3001 183.1C92.0001 174.7 93.8001 166.3 95.5001 157.8C96.4001 153.3 97.5001 148.6 98.0001 144C96.7001 144.6 95.1001 144.7 93.7001 144.7C93.4001 144.7 93.1001 144.7 92.8001 144.7C92.7001 145.3 92.6001 145.8 92.6001 146.4C92.4001 147.6 92.5001 151 91.5001 151.9C91.5001 151.9 91.4001 152 91.3001 152C91.5001 152.1 91.4001 152.2 91.1001 152.4C82.1001 156.6 71.1001 157.9 62.4001 153.1C63.1001 157.2 64.9001 161.5 65.9001 165.4C67.4001 171 68.7001 176.5 68.8001 182.3C68.8001 190.4 68.6001 198.5 67.8001 206.6C67.6001 208.7 67.8001 215.4 65.1001 216.7C64.9001 216.8 64.7001 216.9 64.5001 216.9C63.3001 217.1 63.9001 216.1 64.7001 215.9C64.1001 216 64.5001 215.4 64.8001 214.8C64.9001 214.7 64.9001 214.5 65.0001 214.4C65.3001 213.3 65.5001 212.2 65.6001 211.1C66.0001 208 66.3001 204.8 66.5001 201.6C66.8001 197 67.1001 192.3 67.1001 187.7C67.1001 184.9 67.1001 182.2 67.0001 179.5C66.9001 177.7 66.6001 175.9 66.3001 174.1C65.6001 170.7 64.6001 167.2 63.7001 163.9C63.4001 162.6 62.9001 161.3 62.5001 160C61.7001 157.5 60.8001 154.9 60.5001 152.4C60.5001 152.3 60.6001 152.1 60.7001 152C59.5001 151.2 58.4001 150.3 57.3001 149.2C57.1001 149.1 57.4001 148.8 57.8001 148.7C57.5001 147.7 58.6001 144.9 58.8001 144.1C59.6001 140.5 60.4001 136.9 61.3001 133.3C62.9001 126.5 64.5001 119.6 66.0001 112.8C66.0001 112.7 66.0001 112.6 66.1001 112.5C65.9001 112 65.8001 111.4 65.6001 110.9C63.9001 105.1 62.3001 99.2001 61.5001 93.2001C60.4001 84.8001 60.9001 76.6001 63.5001 68.6001C63.6001 68.4001 63.8001 68.3001 64.1001 68.2001C64.0001 68.1001 64.0001 67.9001 64.1001 67.7001C65.0001 65.6001 66.4001 62.9001 68.9001 62.3001C69.2001 62.2001 69.5001 62.2001 69.8001 62.2001C70.1001 61.1001 70.3001 60.0001 70.3001 58.8001C68.5001 59.0001 66.7001 58.8001 65.4001 57.5001L65.3001 57.4001C62.5001 55.5001 59.9001 52.6001 58.0001 49.4001C57.9001 49.3001 57.8001 49.1001 57.8001 49.0001C56.5001 46.6001 55.6001 44.1001 55.3001 41.6001C55.0001 38.1001 56.1001 34.8001 59.5001 35.1001C58.5001 32.6001 58.2001 30.0001 60.3001 27.9001C62.1001 26.2001 65.0001 25.7001 67.3001 25.5001C69.0001 25.4001 70.9001 25.5001 72.6001 25.2001C75.2001 24.8001 77.4001 23.6001 79.6001 22.3001C82.7001 20.5001 85.7001 18.7001 89.3001 18.5001C95.1001 18.1001 99.7001 23.8001 96.4001 29.2001C95.5001 30.8001 94.2001 32.0001 92.8001 33.0001C92.8001 37.2001 92.7001 43.9001 98.5001 43.9001C98.9001 43.9001 99.3001 44.0001 99.3001 44.5001C99.4001 46.6001 98.1001 47.6001 96.5001 48.6001C96.4001 48.7001 96.3001 48.7001 96.2001 48.7001C96.7001 52.3001 98.1001 57.6001 94.5001 59.9001C93.2001 60.7001 91.8001 61.3001 90.3001 61.5001C89.4001 61.6001 88.5001 61.6001 87.6001 61.8001C85.5001 62.2001 85.0001 64.2001 84.7001 65.9001C84.7001 66.0001 84.5001 66.2001 84.3001 66.2001C86.0001 67.9001 86.2001 70.1001 86.2001 72.4001C86.2001 72.5001 86.2001 72.5001 86.2001 72.6001C86.3001 72.6001 86.5001 72.7001 86.6001 72.7001C90.8001 74.0001 94.7001 76.2001 98.5001 78.4001C103 81.0001 107.4 83.7001 111.8 86.5001C113.3 87.5001 114.9 88.6001 116.4 89.6001C116.4 60.4001 116.4 31.2001 116.4 2.0001C116.4 1.9001 116.5 1.8001 116.6 1.7001C116.2 1.4001 117 0.600098 117.6 0.600098C170.5 0.600098 223.3 0.600098 276.2 0.600098C277.1 0.600098 276.7 1.3001 276.2 1.6001C276.2 38.8001 276.2 75.9001 276.2 113.1C276.3 113.1 276.4 113.1 276.6 113.1C276.9 112.8 275.8 113.6 275.2 113.7ZM60.0001 36.3001C60.0001 36.3001 59.9001 36.3001 60.0001 36.3001C59.9001 36.2001 59.9001 36.2001 59.8001 36.2001C59.9001 36.3001 60.0001 36.3001 60.0001 36.3001ZM72.5001 57.1001C73.5001 56.8001 73.7001 57.6001 72.7001 57.9001C72.3001 58.0001 71.8001 58.1001 71.4001 58.2001C71.4001 58.2001 71.4001 58.2001 71.4001 58.3001C71.4001 59.5001 71.1001 60.7001 70.9001 61.9001C72.2001 62.0001 73.6001 62.4001 74.9001 62.8001C77.2001 63.4001 80.4001 63.8001 82.6001 65.2001C83.4001 62.3001 85.2001 61.0001 88.3001 60.7001C91.8001 60.3001 94.6001 58.9001 94.6001 55.0001C94.6001 52.8001 94.1001 50.6001 93.9001 48.4001C93.9001 48.1001 94.4001 47.8001 94.9001 47.8001C95.0001 47.7001 95.1001 47.5001 95.3001 47.4001C96.6001 46.8001 97.2001 46.0001 97.2001 45.0001C91.4001 44.6001 90.7001 38.9001 90.7001 33.9001C86.3001 36.1001 80.7001 36.4001 75.9001 36.4001C76.2001 40.8001 78.1001 45.0001 76.2001 49.3001C76.1001 49.5001 75.7001 49.7001 75.3001 49.7001C75.5001 50.1001 74.1001 50.6001 73.7001 50.3001C72.9001 49.6001 71.9001 48.9001 70.8001 48.6001C70.2001 48.5001 69.6001 48.5001 69.0001 48.5001C68.7001 48.5001 68.5001 48.6001 68.2001 48.7001C66.8001 49.4001 65.8001 50.9001 65.5001 52.4001C65.2001 53.8001 65.3001 55.4001 66.3001 56.4001C66.5001 56.6001 66.8001 56.7001 67.0001 56.9001C67.1001 57.0001 67.2001 57.1001 67.2001 57.2001C68.7001 58.0001 70.8001 57.6001 72.5001 57.1001ZM65.3001 67.4001C69.1001 68.0001 72.8001 69.1001 76.6001 70.2001C79.0001 70.9001 81.5001 71.3001 83.9001 71.9001C83.9001 69.9001 83.7001 67.6001 81.8001 66.4001C80.1001 65.4001 78.1001 65.0001 76.2001 64.4001C74.3001 63.8001 72.1001 63.1001 70.1001 63.0001C67.4001 63.0001 66.3001 65.3001 65.3001 67.4001ZM96.5001 143L95.3001 143.2C95.7001 143.2 96.1001 143.1 96.5001 143ZM98.1001 142.3C98.2001 141.9 98.3001 141.4 98.3001 141L98.1001 142.3ZM95.1001 102C95.1001 101.8 95.2001 101.7 95.3001 101.6C93.9001 101 92.4001 100.4 91.0001 99.7001C93.7001 110.5 94.5001 122.4 93.6001 133.5C93.5001 134.3 93.5001 135.2 93.4001 136C93.6001 136 93.7001 136 93.9001 136C94.4001 136 94.8001 136 95.3001 136C96.3001 135.9 97.3001 135.8 98.1001 135.2C98.3001 135 98.6001 135 98.9001 135C98.9001 130.7 98.4001 126.4 97.9001 122.2C97.0001 115.3 95.9001 108.7 95.1001 102ZM161.7 59.0001C162.2 58.8001 162.8 58.8001 162.8 59.1001V59.2001C168.1 60.0001 173.6 58.9001 178 55.8001C185.3 50.6001 187.7 40.8001 185.4 32.4001C183 23.5001 176.3 17.0001 167 16.4001C166.9 16.5001 166.7 16.5001 166.5 16.6001C163 17.0001 159.5 17.6001 156.3 19.2001C145.6 24.3001 142.2 37.4001 146.9 48.0001C147.2 48.8001 147.6 49.5001 148 50.1001C148.5 50.1001 148.5 50.4001 148.3 50.6001C151.5 55.0001 156.4 58.0001 161.7 59.0001ZM149.4 70.9001C149.6 71.0001 149.8 71.2001 150 71.4001C150.8 71.8001 151.9 71.7001 152.7 71.7001C152.5 71.6001 152.3 71.5001 152.3 71.2001C152.3 71.1001 152.4 70.9001 152.5 70.8001C152.2 70.9001 152.5 70.7001 152.7 70.3001C152.9 69.8001 153.1 69.4001 153.3 68.9001C153.9 67.6001 154.5 66.3001 155 65.0001C155.8 63.2001 156.6 61.3001 157.4 59.5001C156.7 59.3001 156.1 59.1001 155.5 58.8001C155.3 58.7001 155 58.6001 154.8 58.5001C153.9 60.5001 153 62.6001 152 64.6001C151.3 66.2001 150.6 67.8001 149.8 69.4001C149.9 69.8001 149.7 70.4001 149.4 70.9001ZM141.2 76.3001L141.3 76.4001C142.8 79.6001 145.2 82.1001 147.1 85.1001C149.5 83.0001 152.2 81.2001 153.7 78.3001C153.6 78.2001 153.5 78.2001 153.5 78.0001C153.4 77.6001 153.9 77.3001 154.2 77.2001C155 77.0001 155.2 75.9001 155.3 75.2001C155.3 75.1001 155.3 75.1001 155.4 75.0001V74.9001C155.8 74.5001 157.2 73.3001 156.3 72.8001C155.6 72.4001 154.6 72.3001 153.7 72.3001C152.6 72.3001 151.1 72.5001 149.8 72.3001C149.5 72.4001 149.1 72.4001 148.9 72.3001C148.7 72.1001 148.4 71.9001 148.2 71.7001C147.9 71.7001 147.7 71.6001 147.7 71.3001C147 70.8001 146.1 70.6001 145.4 71.1001C144.7 71.6001 144.2 72.2001 143.7 72.8001C142.7 74.0001 142 75.2001 141.2 76.3001ZM116.2 91.3001C113.8 90.1001 111.6 88.3001 109.3 86.9001C105.1 84.2001 100.8 81.6001 96.5001 79.1001C92.8001 77.0001 88.9001 74.6001 84.8001 73.5001C84.6001 73.7001 84.4001 73.8001 84.1001 73.8001C78.9001 74.2001 75.5001 77.9001 73.5001 82.4001C73.2001 83.1001 71.5001 83.1001 71.9001 82.2001C74.0001 77.6001 77.5001 73.9001 82.4001 72.8001C79.8001 72.2001 77.2001 71.6001 74.6001 70.9001C71.3001 69.9001 68.0001 69.0001 64.6001 68.5001C61.9001 77.0001 61.5001 85.7001 63.0001 94.5001C64.0001 100.2 65.5001 105.7 67.1001 111.2C67.3001 111.2 67.4001 111.3 67.3001 111.4C67.3001 111.5 67.2001 111.7 67.2001 111.8C67.8001 114 68.5001 116.2 69.1001 118.4C69.2001 118.8 67.5001 119.2 67.4001 118.9C67.1001 117.8 66.8001 116.6 66.4001 115.5C65.1001 121.3 63.7001 127.1 62.4001 132.9C61.6001 136.5 60.7001 140.1 59.9001 143.7C59.7001 144.6 58.6001 147.5 59.0001 148.3H58.9001C59.1001 148.3 59.1001 148.4 58.7001 148.6H58.6001C59.3001 149.3 60.0001 149.9 60.7001 150.4C60.9001 150.6 61.2001 150.7 61.4001 150.9C64.5001 153 67.9001 154.3 71.5001 154.8C77.5001 155.7 83.9001 154.4 89.6001 151.8C89.6001 151.8 89.6001 151.8 89.5001 151.7V151.6C89.5001 151.5 89.5001 151.4 89.6001 151.4C89.6001 151.3 89.7001 151 89.8001 150.8C89.9001 150.3 90.0001 149.9 90.1001 149.4C90.3001 148 90.6001 146.6 90.8001 145.1C90.9001 144.4 91.0001 143.7 91.1001 142.9C91.5001 139.6 91.9001 136.3 92.1001 132.9C92.8001 122 92.0001 110.2 89.3001 99.6001C89.2001 99.4001 89.4001 99.2001 89.7001 99.1001C89.8001 99.1001 89.8001 99.0001 89.9001 99.0001C89.8001 98.9001 89.7001 98.9001 89.6001 98.8001C88.0001 97.9001 86.4001 97.0001 85.0001 95.9001C84.3001 95.4001 85.9001 94.7001 86.3001 95.0001C91.1001 98.6001 97.4001 100.7 102.8 103.2C106.2 104.7 109.4 106.5 112.8 108C112.9 108 113 108.1 113.1 108.1C114.5 108.6 115.7 108.8 116.9 108.8C120.5 108.6 123.4 106.1 126.5 103.6C131 99.8001 135.2 95.7001 139.6 91.8001C141.4 90.2001 143.1 88.6001 144.9 87.0001C145.3 86.7001 145.7 86.3001 146.1 86.1001C146.1 86.1001 146.1 86.1001 146.1 86.0001C145.8 86.0001 145.6 86.0001 145.5 85.8001C143.8 83.0001 141.6 80.6001 140 77.7001C139.7 77.9001 139.4 78.0001 139.3 78.1001C139.1 78.2001 139 78.3001 138.8 78.4001C137.9 78.9001 137 79.4001 136.1 80.0001C133.4 81.6001 130.6 83.2001 127.9 84.9001C125.4 86.4001 122.8 87.9001 120.3 89.4001C119.4 90.0001 118.4 90.7001 117.3 91.1001C117 91.3001 116.5 91.4001 116.2 91.3001ZM273.2 189.6C253.9 189.6 234.6 189.6 215.2 189.6C215.2 170.3 215.2 151.1 215.2 131.8C215.2 131.5 213.5 131.8 213.5 132.3C213.5 151.4 213.5 170.5 213.5 189.6C213 189.6 212.5 189.6 212.1 189.6C211.7 189.6 210.1 190.3 211 190.3C211.8 190.3 212.7 190.3 213.5 190.3C213.5 191.3 213.5 192.4 213.5 193.4C213.5 193.7 215.2 193.4 215.2 192.9C215.2 192 215.2 191.1 215.2 190.2C234.2 190.2 253.1 190.2 272.1 190.2C272.4 190.4 274 189.6 273.2 189.6ZM51.7001 189C51.4001 189 51.1001 189 50.7001 189C50.7001 189.7 50.7001 190.4 50.7001 191C50.7001 191.5 49.0001 191.8 49.0001 191.5C49.0001 190.7 49.0001 189.8 49.0001 189C47.3001 189 45.6001 189 43.9001 189C43.5001 189.4 42.3001 189.5 42.3001 189.2C42.3001 189.1 42.3001 189 42.3001 189C40.3001 189 38.4001 189 36.4001 189C36.0001 189.4 34.8001 189.5 34.8001 189.2C34.8001 189.1 34.8001 189 34.8001 189C33.0001 189 31.1001 189 29.3001 189C28.9001 189.4 27.7001 189.5 27.7001 189.2C27.7001 189.1 27.7001 189 27.7001 189C25.7001 189 23.8001 189 21.8001 189C21.4001 189.4 20.2001 189.5 20.2001 189.2C20.2001 189.1 20.2001 189 20.2001 189C18.4001 189 16.5001 189 14.7001 189C14.3001 189.4 13.1001 189.5 13.1001 189.2C13.1001 189.1 13.1001 189 13.1001 189C11.1001 189 9.20007 189 7.20007 189C6.80007 189.4 5.60007 189.5 5.60007 189.2C5.60007 189.1 5.60007 189 5.60007 189C4.00007 189 2.40007 189 0.700069 189C-0.0999309 189 1.40007 188.3 1.80007 188.3C3.10007 188.3 4.30007 188.3 5.60007 188.3C5.60007 182.2 5.60007 176.1 5.60007 170C5.60007 169.5 7.30007 169.2 7.30007 169.5V169.6C9.10007 169.6 10.9001 169.6 12.7001 169.6C12.9001 169.6 13.0001 169.7 13.2001 169.8C13.5001 169.4 14.8001 169.3 14.8001 169.5C14.8001 175.8 14.8001 182 14.8001 188.3C16.6001 188.3 18.4001 188.3 20.2001 188.3C20.2001 179.4 20.2001 170.6 20.2001 161.7C20.2001 161.3 21.1001 161.1 21.6001 161.1C24.1001 161.1 26.6001 161.1 29.1001 161.1C29.3001 161.1 29.3001 161.1 29.3001 161.2C29.3001 161.2 29.3001 161.2 29.3001 161.3C29.3001 170.3 29.3001 179.3 29.3001 188.3C31.1001 188.3 32.9001 188.3 34.7001 188.3C34.7001 177 34.7001 165.6 34.7001 154.3C34.7001 153.8 36.4001 153.5 36.4001 153.8V153.9C38.4001 153.9 40.5001 153.9 42.5001 153.9C43.0001 153.7 43.9001 153.6 43.9001 153.8C43.9001 165.3 43.9001 176.8 43.9001 188.3C45.6001 188.3 47.2001 188.3 48.9001 188.3C48.9001 172.8 48.9001 157.4 48.9001 141.9C48.9001 141.4 50.6001 141.1 50.6001 141.4C50.6001 157 50.6001 172.6 50.6001 188.3C51.3001 188.3 52.0001 188.3 52.7001 188.3C53.7001 188.3 52.1001 189 51.7001 189ZM13.3001 170.3C13.0001 170.6 12.6001 170.7 12.3001 170.7C10.7001 170.7 9.10007 170.7 7.50007 170.7C7.50007 176.6 7.50007 182.4 7.50007 188.3C9.40007 188.3 11.3001 188.3 13.3001 188.3C13.3001 182.3 13.3001 176.3 13.3001 170.3ZM27.8001 161.9C25.9001 161.9 24.0001 161.9 22.0001 161.9C22.0001 170.7 22.0001 179.5 22.0001 188.3C23.9001 188.3 25.8001 188.3 27.8001 188.3C27.8001 179.5 27.8001 170.7 27.8001 161.9ZM42.4001 154.9C42.3001 154.9 42.2001 154.9 42.2001 154.9C40.4001 154.9 38.5001 154.9 36.7001 154.9C36.7001 166 36.7001 177.1 36.7001 188.2C38.6001 188.2 40.5001 188.2 42.5001 188.2C42.4001 177.2 42.4001 166 42.4001 154.9ZM237.8 162.7C237.6 163.3 237.4 163.8 237.2 164.4C236.6 165.9 236 167.5 235.4 169C234.8 170.5 234.3 172.4 233.6 174C233.1 173.3 232.6 172.5 232.1 171.8C231.5 171 231 170.1 230.4 169.3C230.2 169 229.8 168.3 229.4 168.1C229 167.9 228.2 168 227.9 168.5C226.2 169.4 224.8 172.9 223.8 174.4C221.8 177.6 219.9 180.9 217.5 183.9C217 184.5 218.8 184.3 219.1 183.9C221 181.4 222.7 178.7 224.4 176C225.4 174.4 226.5 172.8 227.5 171.2C227.8 170.7 228.2 170.2 228.5 169.7C228.6 169.9 228.7 170 228.8 170.1C229.4 170.9 229.9 171.8 230.5 172.6C231.2 173.7 231.9 174.7 232.6 175.8C232.6 175.9 232.6 176 232.7 176.1L232.8 176.2C232.8 176.2 232.8 176.3 232.9 176.3C233.2 176.8 234.9 176.2 234.5 175.6C234.5 175.6 234.5 175.6 234.5 175.5C235.9 173.5 236.5 170.5 237.4 168.3C237.6 167.8 238.6 165.9 239.2 164.3C239.7 165.4 240.2 166.5 240.7 167.6C241.3 168.9 241.9 170.2 242.6 171.4C242.8 171.9 243.1 172.6 243.5 173C243.5 173 243.6 173 243.6 173.1C243.6 173.1 243.6 173.2 243.5 173.2C243.1 173.8 244.8 173.5 245.1 173.1C246.5 170.8 247 167.4 247.8 164.9C248.5 162.5 249.1 159.9 249.9 157.5C250.7 159.3 251.4 161 252.2 162.8C253.2 165.1 254.7 167.6 255.3 170.1C255.3 170.2 255.4 170.2 255.4 170.2C255.4 170.3 255.3 170.3 255.3 170.4C255.1 170.9 256.8 170.7 257 170.2C260.9 162.2 264.3 154 267.8 145.7C268 145.2 266.3 145.4 266.1 145.9C263 153.3 259.9 160.7 256.5 167.9C255.8 166.1 254.9 164.4 254.1 162.8C253.1 160.4 252 158.1 251 155.7C250.9 155.5 250.6 155.4 250.2 155.5C249.8 155.4 249 155.6 248.9 156C247.8 158.5 247.2 161.4 246.4 164C245.8 165.9 245.2 167.8 244.7 169.7C244.6 170.1 244.5 170.5 244.4 170.9C244.3 170.8 244.3 170.7 244.2 170.5C243.6 169.2 242.9 167.9 242.3 166.6C241.5 164.8 240.6 163.1 239.8 161.3C239.6 160.9 237.9 161.4 238.1 161.8C238.1 161.8 238.1 161.9 238.2 161.9C238.1 162 238.1 162.2 238.2 162.4C237.9 161.9 237.9 162.3 237.8 162.7ZM174.4 144.3C174.9 143.7 175.4 143.2 175.9 142.6C176.8 141.6 176.4 142.5 175.2 142.3C175.7 142.4 177.2 141.5 176.3 141.4C174.2 141.1 171.5 145.8 170.4 147.1C165.7 152.5 161.1 157.9 156.4 163.4C148.5 172.6 140.5 181.7 132.9 191C132.4 191.6 134.2 191.4 134.5 191C141.5 182.4 148.8 174.1 156 165.6C160.6 160.3 165.1 154.9 169.7 149.6C171.3 147.8 172.8 146 174.4 144.3ZM8.60007 100.4C8.10007 91.6001 12.7001 83.6001 20.4001 79.6001C21.2001 79.2001 22.1001 79.9001 21.1001 80.4001C21.4001 80.4001 21.7001 80.5001 21.8001 80.7001C24.9001 87.0001 25.8001 94.1001 28.7001 100.4C29.1001 99.8001 29.6001 99.3001 29.7001 99.1001C31.2001 97.0001 32.7001 94.9001 34.2001 92.8001C35.8001 90.6001 37.4001 88.3001 39.0001 86.1001C39.6001 85.2001 40.9001 83.9001 41.1001 82.7001C41.1001 82.2001 42.4001 81.8001 42.8001 82.2001C49.5001 89.0001 51.9001 100.6 46.4001 108.9C41.9001 115.7 33.6001 119.9 25.4001 118.4C16.8001 116.8 9.20007 109.6 8.60007 100.4ZM10.5001 101.6C12.0001 109.2 17.9001 115.8 25.7001 117.3C34.1001 118.8 43.2001 114.1 46.4001 106C49.3001 98.5001 47.4001 89.9001 42.2001 84.0001C41.8001 84.6001 41.2001 85.3001 40.9001 85.8001C39.5001 87.9001 38.0001 89.9001 36.6001 92.0001C35.1001 94.1001 33.6001 96.1001 32.2001 98.2001C32.0001 98.6001 29.9001 101.1 30.0001 101.4C30.1001 101.7 29.3001 102.1 28.7001 102.1C28.3001 102.3 27.6001 102.3 27.5001 101.9C24.3001 95.3001 23.5001 87.9001 20.2001 81.4001C20.2001 81.3001 20.2001 81.3001 20.2001 81.2001C13.3001 85.1001 9.00007 93.5001 10.5001 101.6ZM21.7001 68.7001C21.6001 68.6001 21.5001 68.5001 21.5001 68.3001C21.5001 68.2001 21.5001 68.1001 21.6001 68.1001C21.8001 67.7001 22.3001 67.5001 22.7001 67.6001C22.8001 67.6001 22.8001 67.5001 22.9001 67.5001C26.1001 65.8001 29.5001 64.9001 33.0001 64.6001C33.3001 64.6001 33.5001 64.6001 33.6001 64.7001C34.0001 64.7001 34.5001 64.8001 34.9001 64.8001C38.7001 65.3001 42.2001 66.9001 45.0001 69.7001C45.1001 69.8001 44.9001 70.0001 44.6001 70.1001V70.2001C44.6001 70.4001 44.4001 70.6001 44.2001 70.7001C44.1001 70.8001 44.0001 70.9001 43.9001 71.1001C43.7001 71.4001 43.4001 71.8001 43.2001 72.2001C42.6001 73.1001 42.0001 74.1001 41.5001 75.1001C40.0001 77.6001 38.6001 80.0001 37.1001 82.5001C35.8001 84.7001 34.5001 87.0001 33.1001 89.2001C32.6001 89.9001 32.1001 91.2001 31.1001 91.2001C31.0001 91.2001 30.8001 91.2001 30.7001 91.1001C30.5001 91.2001 30.2001 91.2001 30.0001 91.1001C29.2001 90.8001 28.8001 88.8001 28.6001 88.1001C27.7001 85.6001 26.8001 83.2001 26.0001 80.7001C25.0001 77.9001 24.1001 75.1001 23.1001 72.3001C22.7001 71.4001 22.4001 69.5001 21.7001 68.7001ZM33.5001 65.3001C33.3001 65.5001 33.1001 65.6001 32.8001 65.6001C29.5001 65.9001 26.5001 66.8001 23.6001 68.3001C24.0001 69.1001 24.2001 70.3001 24.5001 71.0001C25.4001 73.5001 26.3001 76.1001 27.2001 78.6001C28.1001 81.2001 29.0001 83.8001 30.0001 86.4001C30.3001 87.3001 30.6001 88.2001 31.0001 89.1001C31.0001 89.2001 31.1001 89.3001 31.1001 89.4001V89.5001C31.3001 89.2001 31.5001 88.9001 31.7001 88.6001C32.3001 87.7001 32.8001 86.7001 33.4001 85.8001C34.3001 84.4001 35.1001 82.9001 35.9001 81.5001C36.5001 80.5001 37.1001 79.4001 37.7001 78.4001C39.0001 76.2001 40.2001 74.1001 41.6001 71.9001C42.0001 71.3001 42.4001 70.5001 43.0001 69.9001L43.1001 69.8001C40.4001 67.3001 37.1001 65.7001 33.5001 65.3001Z" fill="#4346D5"/>
</svg>
