<svg width="446" height="313" fill="none" xmlns="http://www.w3.org/2000/svg"><path d="M423.57 0H237.885v134.184H423.57V0z" fill="#DEE8F5"/><path d="M423.57 0H237.885v11.053H423.57V0z" fill="#C1D8ED"/><path d="M417.351 8.3a2.776 2.776 0 0 0 2.779-2.773 2.776 2.776 0 0 0-2.779-2.774 2.776 2.776 0 0 0-2.779 2.774 2.776 2.776 0 0 0 2.779 2.773zm-26.252 14.479H255.848v94.348h135.251V22.779z" fill="#fff"/><path d="M362.872 105.297c-1.285 0-5.587-.676-5.894.412-.184.653 3.021 1.425 3.021 1.425" fill="#EEBBAB"/><path d="M363.547 110.445s-8.682 3.56-13.669-.501a.813.813 0 0 1 .467-1.442c3.363-.199 10.27-.874 9.463-3.086h5.423m-17.554-31.878l-4.732 2.33s-4.601-.552-3.875-6.356c.103-.822.592-1.749 2.849-.989-.437-.992-.856-2.246-.515-2.588 1.314-1.304 5.403 5.15 6.273 7.603z" fill="#EEBBAB"/><path opacity=".15" d="M347.677 73.538l-4.732 2.33s-4.601-.552-3.875-6.356c.103-.822.592-1.749 2.849-.989-.437-.992-.856-2.246-.515-2.588 1.314-1.304 5.403 5.15 6.273 7.603z" fill="#000"/><path d="M356.438 100.607a4.488 4.488 0 0 1-3.946-2.357l-11.935-22.238 7.892-4.218 9.163 17.071 14.197-13.473 6.169 6.472-18.453 17.514a4.48 4.48 0 0 1-3.087 1.229z" fill="#4346D5"/><path d="M405.429 134.184h-35.446l2.062-14.038 32.428-1.997.956 16.035z" fill="#262626"/><path d="M394.167 73.902s-3.429-1.469-3.429-10.456l-6.89-.7s1.42 7.941-1.805 10.763l12.124.393z" fill="#EEBBAB"/><path opacity=".15" d="M383.296 71.722l5.285-4.766-4.432.316a12.216 12.216 0 0 1-.853 4.45z" fill="#000"/><path d="M369.458 121.571c1.787 4.096 36.882 5.798 37.35-1.408.299-4.586-3.751-8.586-3.751-17.526s8.24-20.35 1.526-27.05c-1.948-1.943-5.311-3.198-9.412-3.202-.307 2.386-14.826 2.397-14.937.055-.554.009-.985.017-1.253.03-14.145.608-7.929 16.67-7.793 28.47.166 13.808-3.572 16.411-1.73 20.631z" fill="#4346D5"/><path d="M394.305 59.67c-.247 2.746-1.517 5.432-3.84 6.503a17.303 17.303 0 0 1-8.133 1.781c-7.48 0-7.396-16.979-4.137-20.543 3.259-3.563 13.782-2.336 15.492 3.038.884 2.78.854 6.606.618 9.22z" fill="#EEBBAB"/><path d="M383.454 58.455a.616.616 0 1 0 .001-1.233.616.616 0 0 0-.001 1.233zm-4.889 0a.616.616 0 1 0 .001-1.233.616.616 0 0 0-.001 1.233zm-1.199-1.837a.29.29 0 0 1-.027-.578l1.63-.154a.29.29 0 1 1 .055.577l-1.629.154h-.029zm7.301 0a.296.296 0 0 1-.045-.004l-1.64-.254a.289.289 0 0 1-.242-.331.29.29 0 0 1 .332-.241l1.639.254a.292.292 0 0 1 .246.308.294.294 0 0 1-.092.19.294.294 0 0 1-.198.078z" fill="#0F1011"/><path d="M383.566 62.7a10.776 10.776 0 0 1-3.891 0s.135 1.492 1.946 1.492c1.81 0 1.945-1.492 1.945-1.492z" fill="#fff"/><path d="M388.729 53.061c.368 12.41 2.172 13.548 2.172 13.548s5.882-4.22 6.08-11.708c.186-7.019-5.289-10.704-8.823-11.196-13.432-1.864-13.904 10.238-13.904 10.238 6.741 1.153 15.924-.752 15.924-.752" fill="#0F1011"/><path d="M386.78 59.08a2.616 2.616 0 0 0 3.629 2.449 2.617 2.617 0 0 0 1.608-2.45 2.565 2.565 0 0 0-1.61-2.426 2.577 2.577 0 0 0-1.009-.186c-1.865.092-2.618 1.17-2.618 2.613z" fill="#EEBBAB"/><path d="M399.418 54.902c3.298 0 5.971-2.668 5.971-5.958s-2.673-5.958-5.971-5.958c-3.297 0-5.97 2.668-5.97 5.958s2.673 5.958 5.97 5.958z" fill="#0F1011"/><path d="M380.234 72.44c.112 2.342 1.385 5.78 5.32 6.04 5.244.345 9.31-3.709 9.617-6.095h-.013c-5.162 0-11.914.009-14.924.055z" fill="#EEBBAB"/><path d="M388.582 114.163h-.142l-26.788-.818.284-9.271 23.759.725 12.534-26.174 8.386 4-13.84 28.901a4.646 4.646 0 0 1-4.193 2.637z" fill="#4346D5"/><path opacity=".15" d="M380.984 61.47a.211.211 0 0 1-.046-.005l-1.519-.334a.211.211 0 0 1-.155-.279l.797-2.245a.213.213 0 0 1 .401.142l-.716 2.021 1.285.279a.212.212 0 0 1-.046.42h-.001z" fill="#000"/><path d="M326.292 48.672l16.967 26.99a1.144 1.144 0 0 0 .716.508 1.153 1.153 0 0 0 1.192-.453 1.12 1.12 0 0 0 .183-.408 1.143 1.143 0 0 0-.146-.864l-.019-.03-17.823-26.44a.63.63 0 0 0-.403-.276.641.641 0 0 0-.757.493.627.627 0 0 0 .09.48z" fill="#0F1011"/><path d="M338.528 67.82c.898-.354 2.973-.303 3.539.702.959 1.7 1.254 5.608.255 6.048-.999.44-2.749.275-3.266-.892-.516-1.168-1.254-5.571-.528-5.858z" fill="#EEBBAB"/><path d="M446 312.578H0c4.887-12.437 13.912-22.986 26.634-26.116 18.611-4.572 38.306 8 56.878 3.273 10.55-2.683 18.855-10.502 27.583-16.994 32.926-24.495 78.044-31.735 117.009-18.77 20.365 6.774 38.923 18.621 59.783 23.655 26.978 6.516 55.189 1.115 82.931.223 27.015-.868 65.728 10.119 75.182 34.729z" fill="#F3F5FD"/><path d="M389.871 183.442l-5.758 1.358 7.219 30.469 5.758-1.359-7.219-30.468z" fill="#F0F6FF"/><path d="M396.207 181.079l-4.944 26.743 3.196.589 4.944-26.743-3.196-.589z" fill="#C1D8ED"/><path d="M396.209 181.07l-.563 2.95 3.193.606.563-2.949-3.193-.607z" fill="#DEE8F5"/><path d="M386.309 187.871l-1.775.698 10.359 26.239 1.775-.697-10.359-26.24z" fill="#50B38D"/><path d="M399.656 199.356h-15.615v19.915h15.615v-19.915zm-57.299 55.887h-5.84v57.334h5.84v-57.334z" fill="#C1D8ED"/><path d="M337.55 255.243h-5.84v57.334h5.84v-57.334z" fill="#DEE8F5"/><path d="M415.105 255.243h-5.84v57.334h5.84v-57.334z" fill="#C1D8ED"/><path d="M410.298 255.243h-5.84v57.334h5.84v-57.334z" fill="#DEE8F5"/><path d="M358.376 255.243h-5.84v57.334h5.84v-57.334z" fill="#C1D8ED"/><path d="M353.569 255.243h-5.84v57.334h5.84v-57.334z" fill="#DEE8F5"/><path d="M431.124 255.243h-5.84v57.334h5.84v-57.334z" fill="#C1D8ED"/><path d="M426.318 255.243h-5.84v57.334h5.84v-57.334z" fill="#DEE8F5"/><path d="M431.124 218.544h-78.552v38.074h78.552v-38.074z" fill="#C1D8ED"/><path d="M410.263 218.544H331.71v38.074h78.553v-38.074z" fill="#DEE8F5"/><path opacity=".53" d="M406.036 223.957h-70.1v27.08h70.1v-27.08z" fill="#F3F5FD"/><path d="M370.986 240.603a3.11 3.11 0 0 0 3.113-3.106 3.11 3.11 0 0 0-3.113-3.107 3.11 3.11 0 0 0-3.113 3.107 3.11 3.11 0 0 0 3.113 3.106z" fill="#fff"/><path d="M151.258 45.927c11.197 0 20.274-9.058 20.274-20.231 0-11.174-9.077-20.231-20.274-20.231-11.198 0-20.275 9.058-20.275 20.23 0 11.174 9.077 20.232 20.275 20.232z" fill="#C1D8ED"/><path d="M155.389 45.927c11.198 0 20.275-9.058 20.275-20.231 0-11.174-9.077-20.231-20.275-20.231-11.197 0-20.274 9.058-20.274 20.23 0 11.174 9.077 20.232 20.274 20.232z" fill="#DEE8F5"/><path d="M155.389 42.946c9.548 0 17.288-7.723 17.288-17.25 0-9.527-7.74-17.25-17.288-17.25-9.547 0-17.287 7.723-17.287 17.25 0 9.527 7.74 17.25 17.287 17.25z" fill="#F3F5FD"/><path d="M155.39 27.288a.83.83 0 0 1-.405-.106l-8.342-4.678a.825.825 0 1 1 .81-1.438l7.11 3.988V13.715a.824.824 0 0 1 .827-.803.83.83 0 0 1 .826.803v12.748a.83.83 0 0 1-.826.825zm11.228 147.817c-.143-.003-34.893.07-34.961.07-4.875 0-6.758 2.818-6.758 2.818v1.519h47.511v-1.519c-2.146-1.453-4.1-2.93-5.792-2.888z" fill="#DEE8F5"/><path d="M159.998 178.367s2.506-3.591 6.62-3.262a7.855 7.855 0 0 1 3.209.819 7.815 7.815 0 0 1 2.582 2.069v1.519h-25.862v-1.519s1.883-2.819 6.76-2.819 6.691 3.193 6.691 3.193zm-13.451-.374h-21.648v1.518h21.648v-1.518zm-77.392 47.886l-22.74 86.27 3.241.851 22.74-86.27-3.241-.851zm40.298.165l-3.312.518 13.556 86.272 3.312-.519-13.556-86.271z" fill="#C1D8ED"/><path d="M66.11 143.55s-27.692-1.746-27.692 22.398c0 24.145 4.079 57.885 24.486 61.667 20.408 3.782 50.554 2.643 57.556 1.457 8.599-1.454 12.347-21.359.894-22.691-32.506-3.781-16.762-60.212-55.243-62.831z" fill="#C1D8ED"/><path d="M119.051 295.879l-1.054 13.637 11.698.9 1.054-13.637-11.698-.9z" fill="#EEBBAB"/><path d="M144.56 312.473a2.313 2.313 0 0 0 1.62-.678 2.298 2.298 0 0 0 .664-1.622c0-.056 0-.112-.007-.167a2.287 2.287 0 0 0-1.485-1.968l-13.656-4.564a1.926 1.926 0 0 0-1.605.178 10.696 10.696 0 0 1-6.407 1.896 9.534 9.534 0 0 1-4.928-1.798.867.867 0 0 0-1.413.669v6.664a1.496 1.496 0 0 0 1.497 1.493h.006l25.714-.103z" fill="#C1D8ED"/><path d="M177.226 295.358l-11.57 1.942 2.298 13.637 11.571-1.942-2.299-13.637z" fill="#EEBBAB"/><path d="M183.204 298.343l-25.757-98.896a10.313 10.313 0 0 0-3.68-5.563 10.353 10.353 0 0 0-6.321-2.156h-56.46v.036H59.357v9.67c0 2.788.55 5.55 1.62 8.126a21.235 21.235 0 0 0 4.613 6.889 21.277 21.277 0 0 0 6.903 4.603 21.321 21.321 0 0 0 8.144 1.616h15.426v.062h26.93l-7.415 78.677 20.582 1.931 7.17-76.078 19.868 76.272 20.006-5.189z" fill="#262626"/><path d="M140.19 144.497s.084-6.697 4.881-6.348c3.026.22 17.405-.446 17.619.861.529 3.233-12.623 4.024-13.817 7.037l-8.683-1.55z" fill="#EEBBAB"/><path d="M143.373 138.364s6.676-2.175 8.317-1.784c1.452.345-1.576 2.704-1.576 2.704l-6.741-.92z" fill="#EEBBAB"/><path d="M126.401 173.88l23.82-27.673-10.266-5.76-19.073 21.413-14.918-26.644c-1.412-4.211-4.626-7.033-11.186-7.315a98.334 98.334 0 0 0-1.642-.039c-.146 3.066-19.181 3.055-19.584-.072-5.374.005-9.788 1.655-12.336 4.198-8.8 8.781 2 23.745 2 35.453 0 11.708-5.308 16.96-4.917 22.97.615 9.444 46.614 7.214 48.955 1.845 1.57-3.597.049-6.3-1.148-12.732h20.295v-5.644zm-21.414-8.669c.022-1.97.175-4.031.385-6.129l4.637 8.285h-5.021a91.12 91.12 0 0 1 0-2.156h-.001z" fill="#4346D5"/><path d="M93.139 127.863c-.145 3.066-1.822 7.577-6.973 7.911-6.878.457-12.208-4.856-12.61-7.983h.022c6.758 0 15.608.011 19.56.072z" fill="#EEBBAB"/><path d="M192.78 312.473a2.3 2.3 0 0 0 2.113-1.424c.114-.278.172-.576.171-.877 0-.056 0-.112-.007-.167a2.287 2.287 0 0 0-1.485-1.968l-13.657-4.564a1.947 1.947 0 0 0-1.605.178 10.694 10.694 0 0 1-6.407 1.896 9.534 9.534 0 0 1-4.928-1.798.87.87 0 0 0-.918-.111.861.861 0 0 0-.494.78v6.664a1.496 1.496 0 0 0 1.494 1.494h.006l25.717-.103z" fill="#C1D8ED"/><path d="M32.596 184.928h-5.247v127.649h5.247V184.928z" fill="#DEE8F5"/><path d="M285.681 184.928h-5.247v127.649h5.247V184.928z" fill="#C1D8ED"/><path d="M285.68 183.328h-47.321v120.521h47.321V183.328zm-51.521 111.793h-5.247v17.456h5.247v-17.456z" fill="#C1D8ED"/><path d="M292.934 179.656H20.094v7.2h272.84v-7.2z" fill="#DEE8F5"/><path d="M240.983 184.928h-5.247v127.649h5.247V184.928zm-51.521 0h-5.247v127.649h5.247V184.928z" fill="#DEE8F5"/><path d="M238.359 186.865h-51.521v116.984h51.521V186.865z" fill="#DEE8F5"/><path d="M186.476 147.434l-6.784 28.418a2.999 2.999 0 0 0 .567 2.562 3.023 3.023 0 0 0 2.367 1.145h39.995a3.021 3.021 0 0 0 2.909-2.213l7.817-28.418a3.003 3.003 0 0 0-.511-2.621 3.01 3.01 0 0 0-2.398-1.185H189.41c-.678 0-1.337.228-1.869.647a3.006 3.006 0 0 0-1.065 1.665z" fill="#9EBCEA"/><path d="M165.453 179.559h48.34a1.772 1.772 0 0 0 1.773-1.769 1.772 1.772 0 0 0-1.773-1.768h-48.34a1.775 1.775 0 0 0-1.772 1.768 1.763 1.763 0 0 0 1.094 1.634c.215.089.446.135.678.135z" fill="#9EBCEA"/><path d="M208.157 166.78a4.725 4.725 0 0 0 4.73-4.72 4.725 4.725 0 0 0-4.73-4.72 4.725 4.725 0 0 0-4.73 4.72 4.725 4.725 0 0 0 4.73 4.72z" fill="#fff"/><path d="M134.651 176.604c-1.089.853-5.805 1.121-8.252 1.205v-9.049c1.246-.669 2.799-1.533 3.956-2.269 1.603-1.026 2.33-1.322 2.732-1.21h.005a.513.513 0 0 1 .246.156c.054.06.096.13.123.206.263.708-.939 1.773-1.603 2.297l-.006.006c-.24.189-.413.312-.413.312l1.419.652.005.006 1.241.574.016.006.671.306s.117.491.246 1.21v.006c.3 1.723.663 4.767-.386 5.586z" fill="#EEBBAB"/><path d="M142.7 176.616l-2.883-.981-8.494-8.205-1.152-1.118-2.06-1.988 1.929-1.984 2.078 2.009 1.156 1.113 8.467 8.186.959 2.968z" fill="#50B38D"/><path d="M133.274 165.462l-1.95 1.968-1.153-1.118 1.947-1.963 1.156 1.113z" fill="#fff"/><path d="M132.294 168.078c.731.013 1.461.074 2.184.181a12.13 12.13 0 0 1 2.194.493c.397.126.781.289 1.147.487.206.113.402.241.587.385l.41.355a11.573 11.573 0 0 1 1.474 1.6.846.846 0 0 1-.061 1.088.85.85 0 0 1-1.085.122l-.039-.027-1.62-1.083-.406-.266a2.615 2.615 0 0 0-.291-.143 4.488 4.488 0 0 0-.769-.234 14.723 14.723 0 0 0-1.834-.262 32.238 32.238 0 0 0-1.909-.097h-.029a1.304 1.304 0 0 1-1.279-1.322 1.304 1.304 0 0 1 .398-.912 1.301 1.301 0 0 1 .927-.364l.001-.001z" fill="#EEBBAB"/><path d="M97.984 97.022s4.235 15.141 6.614 22.999a2.479 2.479 0 0 1-.386 2.206 2.498 2.498 0 0 1-2.005 1.004H87.345c-.642 0-1.26-.247-1.724-.689a2.49 2.49 0 0 1-.772-1.685l-1.001-21.079 14.136-2.757z" fill="#0F1011"/><path d="M75.208 130.704s4.323-2.282 3.368-14.022l8.928-1.644s-1.012 10.524 3.5 13.87l-15.796 1.796z" fill="#EEBBAB"/><path opacity=".15" d="M89.177 126.706l-7.41-5.667 5.824-.056c.166 1.99.704 3.931 1.586 5.723z" fill="#000"/><path d="M73.515 112.126c.615 3.562 2.56 6.936 5.707 8.089a22.658 22.658 0 0 0 10.814 1.468c9.773-.79 7.86-22.964 3.224-27.274-4.636-4.311-18.253-1.596-19.916 5.606-.86 3.724-.414 8.723.171 12.111z" fill="#EEBBAB"/><path d="M87.498 109.394a.809.809 0 1 0 .001-1.618.809.809 0 0 0 0 1.618zm6.387-.517a.808.808 0 1 0 0-1.615.808.808 0 1 0 0 1.615zm1.404-2.528h-.005l-2.146-.029a.38.38 0 0 1-.26-.652.378.378 0 0 1 .27-.107l2.145.029a.377.377 0 0 1 .265.649.379.379 0 0 1-.27.11h.001zm-9.537.772a.378.378 0 0 1-.377-.335.382.382 0 0 1 .288-.414l2.115-.505a.38.38 0 0 1 .419.569.392.392 0 0 1-.242.169l-2.114.505a.338.338 0 0 1-.09.011z" fill="#0F1011"/><path d="M87.866 114.949s2.988.317 5.085-.411c0 0-.019 1.964-2.384 2.155-2.365.192-2.7-1.744-2.7-1.744z" fill="#fff"/><path opacity=".15" d="M91.087 113.07a.28.28 0 0 1-.082-.545l1.647-.502-1.15-2.56a.275.275 0 0 1 .046-.311.268.268 0 0 1 .2-.089.272.272 0 0 1 .201.08.282.282 0 0 1 .062.092l1.409 3.137-2.251.688a.285.285 0 0 1-.082.01z" fill="#000"/><path d="M98.494 98.837s-1.431-11.548-19.974-8.712c-4.623.707-11.175 4.309-12.236 16.113-.485 5.414-2.356 10.519-3.783 13.751a2.488 2.488 0 0 0 1.09 3.202 2.5 2.5 0 0 0 1.191.302l13.035.005a2.497 2.497 0 0 0 1.765-.726 2.486 2.486 0 0 0 .734-1.758v-.112c-.094-2.214-.168-5.962-.041-11.691.677-3.27-1.128-5.575 1.492-4.824 9.73 2.786 15.996-5.363 16.727-5.55z" fill="#0F1011"/><path d="M83.406 112.063a3.416 3.416 0 0 1-.806 2.495 3.437 3.437 0 0 1-4.838.391 3.422 3.422 0 0 1-1.198-2.333 3.363 3.363 0 0 1 .75-2.465 3.376 3.376 0 0 1 2.393-1.223c2.447-.079 3.545 1.251 3.699 3.135z" fill="#EEBBAB"/><path d="M328.918 93.514h-52.252a.838.838 0 0 1-.838-.836v-52.14a.835.835 0 0 1 1.001-.82.843.843 0 0 1 .43.228l52.252 52.141a.842.842 0 0 1 .181.911.833.833 0 0 1-.774.516zm-51.414-1.672h49.391l-49.391-49.285v49.285z" fill="#C1D8ED"/><path d="M287.314 93.514h-10.648a.838.838 0 0 1-.838-.836V82.053a.836.836 0 0 1 .838-.837h10.648a.838.838 0 0 1 .838.837v10.625a.836.836 0 0 1-.838.836zm-9.81-1.672h8.972v-8.953h-8.972v8.953z" fill="#C1D8ED"/></svg>