<svg fill="none" height="400" width="431" xmlns="http://www.w3.org/2000/svg" xmlns:xlink="http://www.w3.org/1999/xlink"><clipPath id="a"><path d="m0 0h430.168v400h-430.168z"/></clipPath><g clip-path="url(#a)"><path d="m73.486 95.054h75.374v-95.054h-75.374zm0-95.054h-2.446v95.054h2.446z" fill="#dee8f5"/><path d="m73.486 0h-2.446v95.054h2.446zm13.73 77.738h47.914v-60.423h-47.913v60.423z" fill="#292a2e" opacity=".05"/><path d="m87.216 77.738h2.497v-60.423h-2.497z" fill="#292a2e" opacity=".03"/><path d="m11.842 178.703h61.643v-60.273h-61.643z" fill="#dee8f5"/><path d="m23.07 167.723h39.186v-38.314h-39.185v38.314z" fill="#292a2e" opacity=".05"/><path d="m11.842 118.429h-2.445v60.273h2.445z" fill="#dee8f5"/><path d="m11.842 118.429h-2.445v60.273h2.445z" fill="#292a2e" opacity=".05"/><path d="m23.071 167.723h2.497v-38.314h-2.497z" fill="#292a2e" opacity=".03"/><path d="m407.437 3.387h-177.452v171.928h177.452zm2.033 0h-2.033v171.928h2.033z" fill="#dee8f5"/><path d="m409.47 3.387h-2.033v171.928h2.033zm-45.022 118.473v-44.982h-38.031v26.133h-58.91v46.273h-25.037v26.031h156.43v-53.455z" fill="#292a2e" opacity=".05"/><path d="m358.994 81.761h-27.695v4.884h27.695zm0 10.12h-27.695v4.885h27.695v-4.884zm0 10.121h-27.695v4.884h27.695zm34.995 24.598h-5.104v4.884h5.104zm0 10.121h-5.104v4.884h5.104zm0 10.12h-5.104v4.884h5.104zm-9.443-20.241h-5.104v4.884h5.104zm0 10.121h-5.104v4.884h5.104zm0 10.12h-5.104v4.884h5.104zm-9.188-20.241h-5.104v4.884h5.104zm0 10.121h-5.104v4.884h5.104zm0 10.12h-5.104v4.884h5.104z" fill="#fffffa" opacity=".34"/><path d="m407.437 88.387h-35.706v-85h-2.953v85h-96.447v-85h-2.953v85h-39.393v2.86h39.393v84.068h2.953v-84.067h96.447v84.067h2.953v-84.067h35.706z" fill="#fff"/><path d="m414.506 175.107h-191.59v5.718h191.59z" fill="#dee8f5"/><path d="m414.506 175.107h-191.59v5.718h191.59zm2.766 0h-2.766v5.718h2.766z" fill="#292a2e" opacity=".1"/><path d="m417.272 175.107h-2.766v5.718h2.766z" fill="#292a2e" opacity=".1"/><path d="m79.228 268.12h-35.188v9.92h35.188z" fill="#dee8f5"/><path d="m53.376 268.12h-4.61v9.92h4.61z" fill="#292a2e" opacity=".05"/><path d="m74.731 270.276h-19.17v5.879h19.17z" fill="#fff"/><path d="m107.295 269.414-32.695-13.836-4.098 9.091 32.695 13.835z" fill="#dee8f5"/><path d="m107.295 269.414-32.695-13.836-4.098 9.091 32.695 13.835z" fill="#292a2e" opacity=".05"/><path d="m102.904 267.556-4.284-1.813-4.098 9.09 4.284 1.813zm-7.203-.696-17.814-7.538-2.428 5.387 17.813 7.538 2.428-5.387z" fill="#fff"/><path d="m107.356 393.783h-8.842v5.721h8.842zm-90.407 0h-8.843v5.721h8.843z" fill="#292a2e" opacity=".05"/><path d="m115.463 278.505h-115.463v115.084h115.463z" fill="#dee8f5"/><path d="m115.463 278.505h-115.463v115.084h115.463z" fill="#292a2e" opacity=".03"/><path d="m136.86 278.505h-115.463v115.084h115.463z" fill="#dee8f5"/><path d="m128.754 393.783h-8.843v5.721h8.843zm-90.408 0h-8.843v5.721h8.843z" fill="#292a2e" opacity=".05"/><path d="m132.526 283.895h-106.795v22.11h106.795zm0 27.522h-106.795v22.11h106.795zm0 27.521h-106.795v22.11h106.795z" fill="#fff" opacity=".7"/><path d="m79.129 298.043c1.763 0 3.193-1.385 3.193-3.093 0-1.709-1.43-3.094-3.193-3.094-1.764 0-3.194 1.385-3.194 3.094 0 1.708 1.43 3.093 3.194 3.093zm0 27.522c1.763 0 3.193-1.385 3.193-3.093 0-1.709-1.43-3.094-3.193-3.094-1.764 0-3.194 1.385-3.194 3.094 0 1.708 1.43 3.093 3.194 3.093zm0 27.522c1.763 0 3.193-1.385 3.193-3.093 0-1.709-1.43-3.094-3.193-3.094-1.764 0-3.194 1.385-3.194 3.094 0 1.708 1.43 3.093 3.194 3.093z" fill="#292a2e" opacity=".05"/><path d="m132.526 367.08h-106.795v22.11h106.795z" fill="#fff" opacity=".7"/><path d="m79.129 381.229c1.763 0 3.193-1.385 3.193-3.094 0-1.708-1.43-3.093-3.193-3.093-1.764 0-3.194 1.385-3.194 3.093 0 1.709 1.43 3.094 3.194 3.094z" fill="#292a2e" opacity=".05"/><path d="m278.936 307.552h-226.486c-3.057 0-5.989-1.177-8.15-3.271-2.162-2.095-3.377-4.935-3.377-7.897l7.886-247.71h249.101l-7.448 247.71c0 2.962-1.214 5.802-3.376 7.897-2.161 2.094-5.093 3.271-8.15 3.271z" fill="#292a2e"/><path d="m278.936 307.552h-226.486c-3.057 0-5.989-1.177-8.15-3.271-2.162-2.095-3.377-4.935-3.377-7.897l7.886-247.71h249.101l-7.448 247.71c0 2.962-1.214 5.802-3.376 7.897-2.161 2.094-5.093 3.271-8.15 3.271z" fill="#fff" opacity=".9"/><path d="m287.259 24.113h-226.486c-3.172.003-6.213 1.226-8.456 3.399s-3.505 5.12-3.509 8.193l-.438 13.393h249.978l.876-13.393c-.004-3.074-1.265-6.02-3.508-8.193s-5.284-3.396-8.457-3.4z" fill="#0c0c0c"/><path d="m291.64 24.113h-229.115c-3.172.003-6.213 1.226-8.456 3.399s-3.505 5.12-3.509 8.193v13.393h253.045v-13.393c-.004-3.074-1.266-6.02-3.509-8.193s-5.284-3.396-8.456-3.4z" fill="#292a2e"/><path d="m50.999 48.674h252.168v251.954c0 2.962-1.214 5.803-3.376 7.897s-5.093 3.271-8.15 3.271h-229.116c-3.057 0-5.988-1.177-8.15-3.271s-3.376-4.935-3.376-7.897z" fill="#fff"/><path d="m291.64 312.221h-229.115c-3.172-.004-6.213-1.226-8.456-3.399-2.243-2.174-3.505-5.12-3.509-8.193v-252.38h253.045v252.38c-.004 3.073-1.266 6.019-3.509 8.192-2.243 2.174-5.284 3.396-8.456 3.4zm-240.203-263.123v251.532c.003 2.848 1.172 5.579 3.251 7.593 2.08 2.014 4.898 3.146 7.837 3.15h229.115c2.94-.004 5.758-1.136 7.837-3.151 2.079-2.014 3.248-4.744 3.252-7.592v-251.531h-251.292z" fill="#c4c4c4"/><path d="m81.3 14.081c-2.745.003-5.377 1.06-7.318 2.942-1.941 1.88-3.033 4.43-3.036 7.09h.876c0-1.763.522-3.488 1.507-4.97a9.398 9.398 0 0 1 4.042-3.39c1.655-.73 3.493-.983 5.293-.73a9.617 9.617 0 0 1 4.858 2.16 9.156 9.156 0 0 1 2.88 4.365 8.91 8.91 0 0 1 -.017 5.18 9.16 9.16 0 0 1 -2.907 4.346 9.623 9.623 0 0 1 -4.872 2.132 1.437 1.437 0 0 0 -.73-.678 1.5 1.5 0 0 0 -1.008-.054c-.333.099-.617.31-.803.595-.186.284-.26.624-.21.958a1.4 1.4 0 0 0 .486.859c.262.22.598.343.945.346.348.002.685-.116.95-.334a1.4 1.4 0 0 0 .497-.852c2.597-.352 4.96-1.644 6.61-3.617a9.822 9.822 0 0 0 2.287-7.014c-.182-2.534-1.35-4.906-3.267-6.639a10.537 10.537 0 0 0 -7.064-2.695zm201.919 10.032c-.017-2.65-1.116-5.185-3.056-7.052s-4.563-2.915-7.297-2.915c-2.735 0-5.358 1.048-7.298 2.915s-3.038 4.402-3.056 7.052h.876a8.97 8.97 0 0 1 1.506-4.97 9.401 9.401 0 0 1 4.043-3.39c1.655-.73 3.493-.983 5.293-.73a9.615 9.615 0 0 1 4.858 2.16 9.151 9.151 0 0 1 2.879 4.365 8.908 8.908 0 0 1 -.016 5.18 9.168 9.168 0 0 1 -2.907 4.346 9.622 9.622 0 0 1 -4.872 2.132 1.438 1.438 0 0 0 -.73-.678 1.499 1.499 0 0 0 -1.009-.054c-.332.099-.616.31-.802.595a1.37 1.37 0 0 0 -.209.958c.05.333.222.638.485.859.262.22.597.343.945.346.348.002.685-.116.95-.334.266-.217.442-.52.497-.852a10.465 10.465 0 0 0 6.374-3.353 9.862 9.862 0 0 0 2.546-6.58zm-27.366 0c0-2.661-1.091-5.213-3.033-7.094-1.941-1.881-4.575-2.938-7.321-2.938s-5.379 1.057-7.321 2.938-3.032 4.433-3.032 7.093h.876a8.969 8.969 0 0 1 1.506-4.969 9.401 9.401 0 0 1 4.043-3.389c1.655-.73 3.492-.983 5.292-.73a9.616 9.616 0 0 1 4.858 2.16 9.157 9.157 0 0 1 2.879 4.364 8.907 8.907 0 0 1 -.016 5.179 9.16 9.16 0 0 1 -2.906 4.347 9.622 9.622 0 0 1 -4.872 2.132 1.434 1.434 0 0 0 -.729-.679 1.5 1.5 0 0 0 -1.01-.055c-.332.099-.617.31-.803.595a1.377 1.377 0 0 0 .275 1.818c.263.222.598.345.946.347s.685-.116.951-.333c.265-.218.442-.52.497-.853a10.469 10.469 0 0 0 6.374-3.354 9.861 9.861 0 0 0 2.546-6.58zm-27.366 0c-.018-2.65-1.117-5.185-3.057-7.052s-4.563-2.915-7.297-2.915c-2.735 0-5.358 1.048-7.298 2.915s-3.038 4.402-3.056 7.052h.876a8.98 8.98 0 0 1 1.507-4.97 9.393 9.393 0 0 1 4.042-3.39c1.655-.73 3.493-.983 5.293-.73a9.615 9.615 0 0 1 4.858 2.16 9.151 9.151 0 0 1 2.879 4.365 8.908 8.908 0 0 1 -.016 5.18 9.161 9.161 0 0 1 -2.907 4.346 9.622 9.622 0 0 1 -4.872 2.132 1.44 1.44 0 0 0 -.729-.678 1.5 1.5 0 0 0 -1.009-.054c-.333.099-.617.31-.803.595a1.375 1.375 0 0 0 .276 1.817c.262.22.597.343.945.346.348.002.685-.116.95-.334.266-.217.442-.52.497-.852a10.465 10.465 0 0 0 6.374-3.353 9.868 9.868 0 0 0 2.547-6.58zm-27.368 0a9.749 9.749 0 0 0 -.788-3.84 10.017 10.017 0 0 0 -2.244-3.254 10.38 10.38 0 0 0 -3.359-2.174 10.645 10.645 0 0 0 -7.924 0 10.37 10.37 0 0 0 -3.359 2.174 10.02 10.02 0 0 0 -2.245 3.255 9.766 9.766 0 0 0 -.788 3.838h.876c0-1.762.523-3.487 1.507-4.969a9.398 9.398 0 0 1 4.042-3.389 9.756 9.756 0 0 1 5.293-.73 9.62 9.62 0 0 1 4.858 2.16 9.158 9.158 0 0 1 2.879 4.364 8.907 8.907 0 0 1 -.017 5.18 9.159 9.159 0 0 1 -2.906 4.346 9.62 9.62 0 0 1 -4.872 2.132 1.436 1.436 0 0 0 -.729-.678 1.5 1.5 0 0 0 -1.009-.054c-.332.099-.617.31-.803.595a1.38 1.38 0 0 0 .276 1.817 1.487 1.487 0 0 0 1.896.013c.265-.218.441-.52.497-.853a10.463 10.463 0 0 0 6.373-3.354 9.861 9.861 0 0 0 2.546-6.58zm-27.366 0c-.018-2.65-1.116-5.185-3.056-7.052s-4.563-2.915-7.298-2.915c-2.734 0-5.358 1.048-7.297 2.915-1.94 1.867-3.039 4.402-3.057 7.052h.877a8.97 8.97 0 0 1 1.506-4.97 9.395 9.395 0 0 1 4.043-3.39 9.75 9.75 0 0 1 5.292-.73 9.618 9.618 0 0 1 4.859 2.16 9.159 9.159 0 0 1 2.879 4.365 8.908 8.908 0 0 1 -.016 5.18 9.168 9.168 0 0 1 -2.907 4.346 9.626 9.626 0 0 1 -4.873 2.132 1.432 1.432 0 0 0 -.729-.678 1.5 1.5 0 0 0 -1.009-.054c-.332.099-.617.31-.802.595a1.37 1.37 0 0 0 -.209.958c.05.333.222.638.484.859.263.22.598.343.946.346.347.002.684-.116.95-.334a1.4 1.4 0 0 0 .497-.852 10.467 10.467 0 0 0 6.374-3.353 9.862 9.862 0 0 0 2.546-6.58zm-27.366 0c0-2.661-1.091-5.213-3.033-7.094s-4.575-2.938-7.321-2.938-5.38 1.057-7.321 2.938c-1.942 1.881-3.033 4.433-3.033 7.093h.876c0-1.762.523-3.487 1.507-4.969a9.398 9.398 0 0 1 4.042-3.389c1.656-.73 3.493-.984 5.293-.73a9.62 9.62 0 0 1 4.858 2.16 9.158 9.158 0 0 1 2.879 4.364 8.916 8.916 0 0 1 -.016 5.18 9.168 9.168 0 0 1 -2.907 4.346 9.62 9.62 0 0 1 -4.872 2.132 1.436 1.436 0 0 0 -.729-.678 1.5 1.5 0 0 0 -1.009-.054c-.332.099-.617.31-.803.595a1.38 1.38 0 0 0 .276 1.817c.263.22.598.343.946.346.347.002.684-.116.95-.334.265-.217.441-.52.497-.852a10.468 10.468 0 0 0 6.374-3.354 9.871 9.871 0 0 0 2.546-6.58zm-27.367 0c-.018-2.65-1.117-5.185-3.056-7.052-1.94-1.867-4.564-2.915-7.298-2.915-2.735 0-5.358 1.048-7.298 2.915s-3.038 4.402-3.056 7.052h.876c0-1.763.523-3.488 1.507-4.97a9.398 9.398 0 0 1 4.042-3.39 9.755 9.755 0 0 1 5.293-.73 9.622 9.622 0 0 1 4.859 2.16 9.159 9.159 0 0 1 2.879 4.365 8.917 8.917 0 0 1 -.017 5.18 9.154 9.154 0 0 1 -2.907 4.346 9.619 9.619 0 0 1 -4.872 2.132 1.436 1.436 0 0 0 -.729-.678 1.5 1.5 0 0 0 -1.009-.054c-.333.099-.617.31-.803.595a1.38 1.38 0 0 0 .276 1.817c.262.22.598.343.945.346.348.002.685-.116.95-.334.266-.217.442-.52.497-.852a10.467 10.467 0 0 0 6.375-3.353 9.872 9.872 0 0 0 2.546-6.58z" fill="#dee8f5"/><path d="m81.3 14.081c-2.745.003-5.377 1.06-7.318 2.942-1.941 1.88-3.033 4.43-3.036 7.09h.876c0-1.763.522-3.488 1.507-4.97a9.398 9.398 0 0 1 4.042-3.39c1.655-.73 3.493-.983 5.293-.73a9.617 9.617 0 0 1 4.858 2.16 9.156 9.156 0 0 1 2.88 4.365 8.91 8.91 0 0 1 -.017 5.18 9.16 9.16 0 0 1 -2.907 4.346 9.623 9.623 0 0 1 -4.872 2.132 1.437 1.437 0 0 0 -.73-.678 1.5 1.5 0 0 0 -1.008-.054c-.333.099-.617.31-.803.595-.186.284-.26.624-.21.958a1.4 1.4 0 0 0 .486.859c.262.22.598.343.945.346.348.002.685-.116.95-.334a1.4 1.4 0 0 0 .497-.852c2.597-.352 4.96-1.644 6.61-3.617a9.822 9.822 0 0 0 2.287-7.014c-.182-2.534-1.35-4.906-3.267-6.639a10.537 10.537 0 0 0 -7.064-2.695zm201.919 10.032c-.017-2.65-1.116-5.185-3.056-7.052s-4.563-2.915-7.297-2.915c-2.735 0-5.358 1.048-7.298 2.915s-3.038 4.402-3.056 7.052h.876a8.97 8.97 0 0 1 1.506-4.97 9.401 9.401 0 0 1 4.043-3.39c1.655-.73 3.493-.983 5.293-.73a9.615 9.615 0 0 1 4.858 2.16 9.151 9.151 0 0 1 2.879 4.365 8.908 8.908 0 0 1 -.016 5.18 9.168 9.168 0 0 1 -2.907 4.346 9.622 9.622 0 0 1 -4.872 2.132 1.438 1.438 0 0 0 -.73-.678 1.499 1.499 0 0 0 -1.009-.054c-.332.099-.616.31-.802.595a1.37 1.37 0 0 0 -.209.958c.05.333.222.638.485.859.262.22.597.343.945.346.348.002.685-.116.95-.334.266-.217.442-.52.497-.852a10.465 10.465 0 0 0 6.374-3.353 9.862 9.862 0 0 0 2.546-6.58zm-27.366 0c0-2.661-1.091-5.213-3.033-7.094-1.941-1.881-4.575-2.938-7.321-2.938s-5.379 1.057-7.321 2.938-3.032 4.433-3.032 7.093h.876a8.969 8.969 0 0 1 1.506-4.969 9.401 9.401 0 0 1 4.043-3.389c1.655-.73 3.492-.983 5.292-.73a9.616 9.616 0 0 1 4.858 2.16 9.157 9.157 0 0 1 2.879 4.364 8.907 8.907 0 0 1 -.016 5.179 9.16 9.16 0 0 1 -2.906 4.347 9.622 9.622 0 0 1 -4.872 2.132 1.434 1.434 0 0 0 -.729-.679 1.5 1.5 0 0 0 -1.01-.055c-.332.099-.617.31-.803.595a1.377 1.377 0 0 0 .275 1.818c.263.222.598.345.946.347s.685-.116.951-.333c.265-.218.442-.52.497-.853a10.469 10.469 0 0 0 6.374-3.354 9.861 9.861 0 0 0 2.546-6.58zm-27.366 0c-.018-2.65-1.117-5.185-3.057-7.052s-4.563-2.915-7.297-2.915c-2.735 0-5.358 1.048-7.298 2.915s-3.038 4.402-3.056 7.052h.876a8.98 8.98 0 0 1 1.507-4.97 9.393 9.393 0 0 1 4.042-3.39c1.655-.73 3.493-.983 5.293-.73a9.615 9.615 0 0 1 4.858 2.16 9.151 9.151 0 0 1 2.879 4.365 8.908 8.908 0 0 1 -.016 5.18 9.161 9.161 0 0 1 -2.907 4.346 9.622 9.622 0 0 1 -4.872 2.132 1.44 1.44 0 0 0 -.729-.678 1.5 1.5 0 0 0 -1.009-.054c-.333.099-.617.31-.803.595a1.375 1.375 0 0 0 .276 1.817c.262.22.597.343.945.346.348.002.685-.116.95-.334.266-.217.442-.52.497-.852a10.465 10.465 0 0 0 6.374-3.353 9.868 9.868 0 0 0 2.547-6.58zm-27.368 0a9.749 9.749 0 0 0 -.788-3.84 10.017 10.017 0 0 0 -2.244-3.254 10.38 10.38 0 0 0 -3.359-2.174 10.645 10.645 0 0 0 -7.924 0 10.37 10.37 0 0 0 -3.359 2.174 10.02 10.02 0 0 0 -2.245 3.255 9.766 9.766 0 0 0 -.788 3.838h.876c0-1.762.523-3.487 1.507-4.969a9.398 9.398 0 0 1 4.042-3.389 9.756 9.756 0 0 1 5.293-.73 9.62 9.62 0 0 1 4.858 2.16 9.158 9.158 0 0 1 2.879 4.364 8.907 8.907 0 0 1 -.017 5.18 9.159 9.159 0 0 1 -2.906 4.346 9.62 9.62 0 0 1 -4.872 2.132 1.436 1.436 0 0 0 -.729-.678 1.5 1.5 0 0 0 -1.009-.054c-.332.099-.617.31-.803.595a1.38 1.38 0 0 0 .276 1.817 1.487 1.487 0 0 0 1.896.013c.265-.218.441-.52.497-.853a10.463 10.463 0 0 0 6.373-3.354 9.861 9.861 0 0 0 2.546-6.58zm-27.366 0c-.018-2.65-1.116-5.185-3.056-7.052s-4.563-2.915-7.298-2.915c-2.734 0-5.358 1.048-7.297 2.915-1.94 1.867-3.039 4.402-3.057 7.052h.877a8.97 8.97 0 0 1 1.506-4.97 9.395 9.395 0 0 1 4.043-3.39 9.75 9.75 0 0 1 5.292-.73 9.618 9.618 0 0 1 4.859 2.16 9.159 9.159 0 0 1 2.879 4.365 8.908 8.908 0 0 1 -.016 5.18 9.168 9.168 0 0 1 -2.907 4.346 9.626 9.626 0 0 1 -4.873 2.132 1.432 1.432 0 0 0 -.729-.678 1.5 1.5 0 0 0 -1.009-.054c-.332.099-.617.31-.802.595a1.37 1.37 0 0 0 -.209.958c.05.333.222.638.484.859.263.22.598.343.946.346.347.002.684-.116.95-.334a1.4 1.4 0 0 0 .497-.852 10.467 10.467 0 0 0 6.374-3.353 9.862 9.862 0 0 0 2.546-6.58zm-27.366 0c0-2.661-1.091-5.213-3.033-7.094s-4.575-2.938-7.321-2.938-5.38 1.057-7.321 2.938c-1.942 1.881-3.033 4.433-3.033 7.093h.876c0-1.762.523-3.487 1.507-4.969a9.398 9.398 0 0 1 4.042-3.389c1.656-.73 3.493-.984 5.293-.73a9.62 9.62 0 0 1 4.858 2.16 9.158 9.158 0 0 1 2.879 4.364 8.916 8.916 0 0 1 -.016 5.18 9.168 9.168 0 0 1 -2.907 4.346 9.62 9.62 0 0 1 -4.872 2.132 1.436 1.436 0 0 0 -.729-.678 1.5 1.5 0 0 0 -1.009-.054c-.332.099-.617.31-.803.595a1.38 1.38 0 0 0 .276 1.817c.263.22.598.343.946.346.347.002.684-.116.95-.334.265-.217.441-.52.497-.852a10.468 10.468 0 0 0 6.374-3.354 9.871 9.871 0 0 0 2.546-6.58zm-27.367 0c-.018-2.65-1.117-5.185-3.056-7.052-1.94-1.867-4.564-2.915-7.298-2.915-2.735 0-5.358 1.048-7.298 2.915s-3.038 4.402-3.056 7.052h.876c0-1.763.523-3.488 1.507-4.97a9.398 9.398 0 0 1 4.042-3.39 9.755 9.755 0 0 1 5.293-.73 9.622 9.622 0 0 1 4.859 2.16 9.159 9.159 0 0 1 2.879 4.365 8.917 8.917 0 0 1 -.017 5.18 9.154 9.154 0 0 1 -2.907 4.346 9.619 9.619 0 0 1 -4.872 2.132 1.436 1.436 0 0 0 -.729-.678 1.5 1.5 0 0 0 -1.009-.054c-.333.099-.617.31-.803.595a1.38 1.38 0 0 0 .276 1.817c.262.22.598.343.945.346.348.002.685-.116.95-.334.266-.217.442-.52.497-.852a10.467 10.467 0 0 0 6.375-3.353 9.872 9.872 0 0 0 2.546-6.58z" fill="#292a2e" opacity=".36"/><path d="m279.23 76.177h-205.485a.445.445 0 0 1 -.31-.125.418.418 0 0 1 0-.6.446.446 0 0 1 .31-.124h205.485c.117 0 .228.044.31.124a.418.418 0 0 1 0 .6.444.444 0 0 1 -.31.124zm0 24.062h-205.485a.443.443 0 0 1 -.31-.124.417.417 0 0 1 0-.6.445.445 0 0 1 .31-.124h205.485c.117 0 .228.044.31.124a.418.418 0 0 1 0 .6.442.442 0 0 1 -.31.124zm-115.944 24.064h-89.54a.448.448 0 0 1 -.31-.124.42.42 0 0 1 0-.601.448.448 0 0 1 .31-.124h89.54c.116 0 .228.045.31.124a.42.42 0 0 1 0 .601.448.448 0 0 1 -.31.124z" fill="#292a2e" opacity=".72"/><path d="m377.109 201.613a12.34 12.34 0 0 0 5.563-1.322 11.91 11.91 0 0 0 4.301-3.667 11.445 11.445 0 0 0 2.063-5.178 11.33 11.33 0 0 0 -.645-5.516c-.681-1.788-16.635-42.721-19.672-50.305l-22.49 8.828c1.708 4.265 7.895 20.429 12.866 33.45l-8.258-.87-2.599 23.17 27.569 1.344a12.3 12.3 0 0 0 1.302.066z" fill="#4346d5"/><path d="m179.333 144.094 8.313-28.793 195.861 50.691-8.313 28.792z" fill="#4346d5"/><path d="m179.333 144.094 8.313-28.793 195.861 50.691-8.313 28.792z" fill="#fff" opacity=".5"/><path d="m396.693 200.612 8.312-28.793-21.497-5.825-8.312 28.792z" fill="#262626"/><path d="m179.333 144.093s-5.64-6.125-10.678-11.629c-3.994-4.366-7.607-8.342-7.718-8.56s5.316-1.998 11.31-3.877c7.283-2.284 15.4-4.725 15.4-4.725z" fill="#4346d5"/><path d="m179.333 144.093s-5.64-6.125-10.678-11.629c-3.994-4.366-7.607-8.342-7.718-8.56s5.316-1.998 11.31-3.877c7.283-2.284 15.4-4.725 15.4-4.725z" fill="#fff" opacity=".9"/><path d="m168.655 132.464c-3.994-4.366-7.607-8.342-7.718-8.56s5.316-1.998 11.31-3.877z" fill="#262626"/><path d="m181.978 135.144 195.913 50.153-.375 1.315-195.912-50.153zm3.248-11.266 195.913 50.153-.375 1.315-195.913-50.153z" fill="#fff"/><path d="m351.579 381.221s-1.978 9.931-11.577 10.487c-9.599.555-7.518 7.963-7.518 7.963h36.684v-17.756z" fill="#4346d5"/><path d="m362.893 200.021s-.115-2.986-.09 3.788c.09 25.266.543 54.125 1.648 71.013 1.778 27.148 6.334 112.74 6.334 112.74l-24.104-.196-23.363-188.371z" fill="#262626"/><path d="m335.673 229.815s-.999 18.336-1.183 22.64c-.428 9.955-.577 20.262-.577 31.948l-3.8-30.635s2.779-9.601 5.56-23.953z" fill="#0a0a0a"/><path d="m308.666 381.221s-1.978 9.931-11.577 10.487c-9.599.555-7.518 7.963-7.518 7.963h36.683v-17.756z" fill="#4346d5"/><path d="m296.994 201.985s-2.134 86.353-1.822 90.573l8.965 94.35 23.706.425-2.31-98.189s1.63-27.085 8.384-52.235a189.327 189.327 0 0 0 6.207-39.446z" fill="#262626"/><path d="m363.156 200.019.079.004s-.057-1.473-.079-.004z" fill="#333"/><path d="m293.601 154.052c.497 5.658 2.916 40.961 3.393 47.931h65.873c.372-6.286.435-33.523 1.846-45.815 1.347-11.731 5.598-17.855 3.661-21.323-3.165-5.668-11.815-8.943-17.713-9.717-3.602-.472-9.019-.811-9.019-.811s-.459 8.99-11.395 9.491c-14.888.679-13.894-9.491-13.968-9.491-2.409 0-15.75 1.324-18.684 3.84-7.89 6.766-5.049 13.904-3.994 25.895z" fill="#4346d5"/><path d="m308.432 123.542c.073-.009 2.094 7.358 17.863 6.212 10.917-.793 13.58-7.992 13.829-7.992-1.177-.243-3.089-.494-3.611-.764-1.719-.895-2.972-1.984-3.602-4.322-.493-1.829-.745-8.867-.745-12.398l-16.798 3.657c.234 3.983 1.873 13.218-3.871 14.853-.955.269-1.985.518-3.065.754z" fill="#eebbab"/><path d="m315.95 115.767c6.622.506 15.129-2.203 16.745-10.763l1.458-7.725c1.616-8.56-1.715-16.322-10.032-17.796-8.319-1.474-15.847 4.363-17.463 12.923l-.645 3.42c-.622 3.285-1.879 19.037 9.937 19.941z" fill="#eebbab"/><path d="m309.809 107.907c1.189-5.787 1.734-9.648 1.671-13.721-1.675-2.844-1.234-6.112-.854-7.523a6.611 6.611 0 0 1 -3.872.963s2.769-10.767 12.178-13.665c1.731-.652 6.15-1.477 12.017-.697 4.99.663 17.291 4.278 19.048 17.696v.008c.058.444 1.239 12.807 3.593 18.738 3.165 7.974 7.609 10.451 7.497 19.651-.145 11.833-22.599 13.408-36.141 12.524-13.541-.885-21.104-5.201-21.202-13.729-.106-9.555 3.687-8.667 6.065-20.245z" fill="#0a0a0a"/><path d="m364.275 156.154-1.619 45.824.438.014 1.619-45.823z" fill="#0c0c0c"/><path d="m231.795 157.059-6.509-9.023a1.78 1.78 0 0 0 -.541-.491 1.849 1.849 0 0 0 -2.091.157c-.343.298-.56.709-.609 1.153-.048.444.075.89.346 1.251l1.396 1.935-7.272-4.132c-.8-.473-2.094-.558-2.584.347a1.69 1.69 0 0 0 -.249 1.122c.05.391.236.754.527 1.029a.112.112 0 0 0 -.018.02l-.007.019-1.234-.729a1.84 1.84 0 0 0 -2.21.257 1.738 1.738 0 0 0 -.423.65c-.133.388-.124.808.025 1.19.148.383.428.704.793.91l.525.31a.157.157 0 0 0 .004.057 1.856 1.856 0 0 0 -1.241.039 1.782 1.782 0 0 0 -.918.81 1.745 1.745 0 0 0 -.105 1.305c.135.433.434.8.836 1.029l1.305.771a.155.155 0 0 0 -.143.103.153.153 0 0 0 -.008.06 1.838 1.838 0 0 0 -1.106.306c-.325.216-.567.53-.69.893a1.73 1.73 0 0 0 .047 1.17c.151.374.428.687.786.89l11.004 6.505a9.285 9.285 0 0 0 5.126 1.275 9.245 9.245 0 0 0 4.987-1.719 5.77 5.77 0 0 0 2.336-3.72 5.654 5.654 0 0 0 -1-4.245z" fill="#eebbab"/><path d="m221.388 154.534a.168.168 0 0 1 -.225.053l-6.91-3.938a.157.157 0 0 1 -.054-.217.17.17 0 0 1 .098-.074.172.172 0 0 1 .124.014l6.91 3.939c.019.01.036.025.049.041a.169.169 0 0 1 .028.057.166.166 0 0 1 -.018.122zm-1.709 2.999a.165.165 0 0 1 -.101.071.173.173 0 0 1 -.124-.018l-7.71-4.395a.175.175 0 0 1 -.048-.042.155.155 0 0 1 -.01-.178.165.165 0 0 1 .101-.072.178.178 0 0 1 .126.015l7.709 4.395a.158.158 0 0 1 .06.22zm-1.83 3.259a.163.163 0 0 1 -.101.072.165.165 0 0 1 -.123-.018l-6.152-3.505a.164.164 0 0 1 -.072-.099.156.156 0 0 1 .018-.119.164.164 0 0 1 .099-.073.175.175 0 0 1 .123.013l6.152 3.506a.162.162 0 0 1 .08.161.155.155 0 0 1 -.021.059z" fill="#0c0c0c" opacity=".2"/><path d="m295.145 130.881-27.312 39.661-34.485-19.372-12.454 19.764 44.173 27.486a13.193 13.193 0 0 0 9.56 1.704c3.294-.666 6.186-2.558 8.056-5.269l.164-.238 34.161-49.602z" fill="#4346d5"/><path d="m295.228 177.134a.226.226 0 0 1 -.112-.03.206.206 0 0 1 -.106-.193.207.207 0 0 1 .036-.107l7.203-10.389a.22.22 0 0 1 .3-.053c.048.03.081.078.092.132a.207.207 0 0 1 -.028.157l-7.203 10.389a.21.21 0 0 1 -.079.069.23.23 0 0 1 -.103.025z" fill="#0c0c0c"/><path d="m416.819 400h-412.427a.347.347 0 0 1 -.24-.096.322.322 0 0 1 0-.464.342.342 0 0 1 .24-.096h412.427c.09 0 .176.034.24.096a.324.324 0 0 1 0 .464.348.348 0 0 1 -.24.096z" fill="#c4c4c4"/></g></svg>