<svg width="474" height="369" viewBox="0 0 474 369" fill="none" xmlns="http://www.w3.org/2000/svg">
<g clip-path="url(#clip0_119_1934)">
<path d="M38.5463 369C31.9493 369.006 25.5113 366.973 20.1117 363.18C14.712 359.387 10.6141 354.017 8.37762 347.806C-1.44964 320.407 -10.1071 269.653 28.3682 214.754C70.9109 154.053 156.017 91.3 215.877 84.8718C309.658 74.8053 335.87 184.242 377.949 209.708C414.304 231.713 466.953 264.706 473.833 333.664C474.255 337.861 473.846 342.1 472.631 346.14C471.415 350.179 469.417 353.939 466.75 357.205C464.082 360.471 460.798 363.179 457.085 365.175C453.372 367.171 449.303 368.415 445.109 368.837C444.048 368.942 442.983 368.996 441.916 368.998L38.5463 369Z" fill="#F3F5FD"/>
<path d="M329.434 0H128.897V260.374H329.434V0Z" fill="#DEE8F5"/>
<path d="M310.951 73.8604H147.381V136.701H310.951V73.8604Z" fill="white"/>
<path d="M310.951 210.688H147.381V242.532H310.951V210.688Z" fill="white"/>
<path d="M310.951 149.004H147.381V155.203H310.951V149.004Z" fill="white"/>
<path d="M310.951 164.293H147.381V170.492H310.951V164.293Z" fill="white"/>
<path d="M310.951 179.581H147.381V185.78H310.951V179.581Z" fill="white"/>
<path d="M310.951 193.286H147.381V199.485H310.951V193.286Z" fill="white"/>
<path d="M191.936 41.1042C191.936 45.5142 190.63 49.8251 188.182 53.4919C185.734 57.1587 182.255 60.0167 178.184 61.7044C174.113 63.3921 169.634 63.8337 165.313 62.9734C160.991 62.1131 157.022 59.9896 153.906 56.8713C150.79 53.753 148.669 49.7801 147.809 45.4549C146.949 41.1297 147.39 36.6464 149.077 32.5722C150.763 28.4979 153.618 25.0155 157.282 22.5655C160.945 20.1154 165.252 18.8077 169.658 18.8077C172.586 18.799 175.487 19.3697 178.194 20.4871C180.901 21.6045 183.36 23.2465 185.43 25.3187C187.501 27.3908 189.141 29.8522 190.258 32.5613C191.374 35.2704 191.945 38.1737 191.936 41.1042Z" fill="#C1D8ED"/>
<path d="M169.658 43.402C174.529 43.402 178.478 39.4499 178.478 34.5748C178.478 29.6996 174.529 25.7476 169.658 25.7476C164.787 25.7476 160.839 29.6996 160.839 34.5748C160.839 39.4499 164.787 43.402 169.658 43.402Z" fill="white"/>
<path d="M185.711 56.5653C183.633 58.727 181.139 60.4465 178.381 61.6211C175.622 62.7957 172.656 63.4011 169.658 63.4011C166.66 63.4011 163.693 62.7957 160.935 61.6211C158.177 60.4465 155.683 58.727 153.604 56.5653C156.608 49.8465 162.672 45.2544 169.658 45.2544C176.644 45.2544 182.708 49.8465 185.711 56.5653Z" fill="white"/>
<path d="M245.989 18.9459H201.013V32.5494H245.989V18.9459Z" fill="white"/>
<path d="M310.95 40.9644H201.013V45.9139H310.95V40.9644Z" fill="white"/>
<path d="M310.95 54.3281H201.013V59.2776H310.95V54.3281Z" fill="white"/>
<path d="M152.645 180.97C152.645 180.97 156.962 178.87 160.205 179.676C163.448 180.482 161.928 181.879 159.568 182.376C157.209 182.873 152.024 183.681 152.024 183.681" fill="#EEBBAB"/>
<path d="M155.166 180.873C155.166 180.873 163.17 180.03 163.254 181.958C163.254 181.958 163.604 187.907 162.518 188.824C160.876 190.212 152.745 189.125 152.745 189.125L155.166 180.873Z" fill="#EEBBAB"/>
<path d="M97.1254 363.305L86.1567 361.999C86.6506 357.844 87.2087 352.853 87.2466 352.035C87.2466 352.088 87.2466 352.131 87.2466 352.164H98.292C98.2899 352.495 98.2899 353.504 97.1254 363.305Z" fill="#EEBBAB"/>
<path d="M53.1143 364.626L42.0688 364.59C42.0688 364.59 42.1057 353.175 42.1057 352.164H53.1511C53.1511 353.178 53.1143 364.626 53.1143 364.626Z" fill="#EEBBAB"/>
<path d="M81.7418 359.817L101.203 359.485C100.394 338.974 100.256 315.513 100.039 294.284C99.9784 289.022 99.5814 283.769 98.8501 278.558C95.7195 256.067 93.6771 233.706 89.4625 211.344L89.3216 211.385L88.9108 208.58L48.8964 206.105L46.8115 232.272C46.8115 232.272 41.5985 322.79 39.2217 359.185L58.6137 360.825C62.1078 325.14 67.5148 273.144 70.8405 235.657C74.6596 253.907 77.2573 272.806 80.5783 290.9C81.2431 313.553 81.8038 337.233 81.7418 359.817Z" fill="#262626"/>
<path d="M66.5411 368.903C66.8382 368.902 67.1317 368.839 67.4035 368.719C67.6752 368.599 67.9193 368.424 68.1205 368.205C68.3218 367.986 68.4758 367.728 68.573 367.447C68.6702 367.166 68.7085 366.868 68.6855 366.572C68.6533 366.161 68.5046 365.768 68.2569 365.439C68.0091 365.11 67.6726 364.858 67.2869 364.714L54.4306 360.405C54.1816 360.322 53.9177 360.295 53.657 360.324C53.3962 360.352 53.1448 360.438 52.92 360.573C51.1527 361.8 49.0384 362.428 46.8882 362.363C45.2136 362.243 43.6061 361.656 42.2491 360.667C42.1298 360.569 41.9852 360.507 41.832 360.488C41.6789 360.469 41.5236 360.494 41.3842 360.561C41.2448 360.627 41.1271 360.731 41.0448 360.862C40.9625 360.992 40.9191 361.144 40.9194 361.298V367.59C40.9194 367.776 40.9561 367.96 41.0272 368.131C41.0984 368.302 41.2026 368.458 41.334 368.589C41.4654 368.72 41.6214 368.824 41.793 368.894C41.9645 368.965 42.1483 369.001 42.3338 369L66.5411 368.903Z" fill="#C1D8ED"/>
<path d="M110.583 368.903C110.88 368.902 111.174 368.839 111.445 368.719C111.717 368.599 111.961 368.424 112.163 368.205C112.364 367.986 112.518 367.728 112.615 367.447C112.712 367.166 112.75 366.868 112.727 366.572C112.695 366.161 112.546 365.768 112.299 365.439C112.051 365.11 111.715 364.858 111.329 364.714L98.4726 360.405C98.2236 360.322 97.9597 360.295 97.6989 360.324C97.4382 360.352 97.1868 360.438 96.962 360.573C95.1947 361.8 93.0804 362.428 90.9302 362.363C89.2554 362.243 87.6478 361.656 86.2906 360.667C86.1713 360.569 86.0267 360.507 85.8736 360.488C85.7204 360.469 85.5651 360.494 85.4258 360.56C85.2864 360.627 85.1687 360.731 85.0865 360.862C85.0043 360.992 84.9609 361.144 84.9614 361.298V367.59C84.9614 367.776 84.9981 367.96 85.0692 368.131C85.1403 368.302 85.2446 368.458 85.376 368.589C85.5074 368.72 85.6634 368.824 85.835 368.894C86.0065 368.965 86.1903 369.001 86.3758 369L110.583 368.903Z" fill="#C1D8ED"/>
<path d="M134.006 190.698H102.722C101.796 190.698 100.885 190.464 100.072 190.019C99.2595 189.575 98.5718 188.932 98.0722 188.151L78.3052 157.267L87.6054 151.304L105.744 179.643H134.006V190.698Z" fill="#4346D5"/>
<path d="M91.7638 209.537C89.5605 214.607 46.2567 216.713 45.6781 207.795C45.31 202.12 50.3067 197.166 50.3067 186.106C50.3067 175.046 40.1397 160.921 48.4237 152.63C50.8274 150.224 54.9779 148.671 60.0372 148.666C60.4159 151.619 78.3305 151.63 78.4672 148.734C79.151 148.745 79.6822 148.755 80.0136 148.771C97.4653 149.524 89.7967 169.402 89.6284 184.005C89.4232 201.093 94.036 204.315 91.7638 209.537Z" fill="#4346D5"/>
<path d="M78.4672 148.735C78.3304 151.63 76.7578 155.889 71.903 156.21C65.4336 156.636 60.4158 151.619 60.0371 148.666H60.0529C66.4224 148.665 74.7538 148.677 78.4672 148.735Z" fill="#EEBBAB"/>
<path d="M61.6152 151.59C61.6152 151.59 65.682 149.432 64.7742 138.347L73.1771 136.788C73.1771 136.788 72.233 146.726 76.4839 149.881L61.6152 151.59Z" fill="#EEBBAB"/>
<g opacity="0.15">
<path opacity="0.15" d="M74.7625 147.804L67.7812 142.458L73.2645 142.401C73.4231 144.28 73.9312 146.112 74.7625 147.804Z" fill="black"/>
</g>
<path d="M60.0062 134.049C60.5879 137.412 62.4214 140.597 65.3853 141.682C68.904 142.971 71.5102 143.059 75.567 143.059C81.1029 143.059 80.9199 137.28 81.0755 131.457C81.2333 125.611 80.7668 119.34 78.5787 117.303C74.2132 113.236 61.3937 115.811 59.8347 122.613C59.0284 126.133 59.4523 130.848 60.0062 134.049Z" fill="#EEBBAB"/>
<path d="M84.0427 120.683C84.0427 120.683 86.3097 120.176 85.689 117.914C85.2777 116.413 83.3569 116.747 83.3569 116.747C83.3569 116.747 85.1757 116.413 85.1757 114.824C85.1757 113.823 84.4067 112.126 82.0872 113.096C79.3663 114.233 76.2626 114.087 73.9031 113.69C72.568 113.398 71.2127 113.206 69.8489 113.117H69.842C68.2743 113.09 66.7115 113.299 65.2061 113.738C60.9878 115.002 54.6041 118.787 55.9611 127.369C57.4759 136.947 61.9667 140.61 63.9422 141.785C64.0591 141.855 64.1904 141.898 64.3263 141.911C64.4622 141.923 64.5991 141.904 64.7266 141.855C64.8541 141.807 64.969 141.73 65.0624 141.63C65.1559 141.531 65.2255 141.411 65.2661 141.281C65.8268 139.486 66.7914 134.97 66.5221 125.656C79.4883 125.019 83.2191 124.826 83.2191 124.826C83.2191 124.826 86.2697 124.941 86.2697 122.709C86.2697 120.476 84.0427 120.683 84.0427 120.683Z" fill="#0F1011"/>
<path d="M73.165 131.458C73.5859 131.458 73.9271 131.117 73.9271 130.695C73.9271 130.274 73.5859 129.933 73.165 129.933C72.744 129.933 72.4028 130.274 72.4028 130.695C72.4028 131.117 72.744 131.458 73.165 131.458Z" fill="#0F1011"/>
<path d="M79.1777 130.965C79.5986 130.965 79.9398 130.624 79.9398 130.202C79.9398 129.781 79.5986 129.439 79.1777 129.439C78.7567 129.439 78.4155 129.781 78.4155 130.202C78.4155 130.624 78.7567 130.965 79.1777 130.965Z" fill="#0F1011"/>
<path d="M80.498 128.576H80.4938L78.4746 128.551C78.4275 128.55 78.3811 128.54 78.3379 128.522C78.2946 128.503 78.2555 128.476 78.2227 128.443C78.1899 128.409 78.164 128.369 78.1466 128.325C78.1291 128.282 78.1205 128.235 78.1211 128.188C78.1237 128.093 78.1631 128.003 78.2309 127.937C78.2986 127.871 78.3895 127.834 78.484 127.834L80.5027 127.86C80.5953 127.864 80.6827 127.904 80.7465 127.971C80.8103 128.038 80.8456 128.128 80.845 128.22C80.8444 128.313 80.8079 128.402 80.7432 128.468C80.6785 128.535 80.5906 128.573 80.498 128.576Z" fill="#0F1011"/>
<path d="M71.5202 129.314C71.4322 129.314 71.347 129.282 71.2811 129.224C71.2151 129.165 71.173 129.085 71.1626 128.997C71.1523 128.91 71.1745 128.822 71.225 128.749C71.2756 128.677 71.3509 128.626 71.4366 128.606L73.4274 128.127C73.4735 128.115 73.5216 128.112 73.5689 128.119C73.6161 128.125 73.6616 128.141 73.7025 128.166C73.7435 128.19 73.7791 128.223 73.8074 128.261C73.8357 128.3 73.856 128.344 73.8671 128.39C73.8783 128.436 73.88 128.485 73.8723 128.532C73.8646 128.579 73.8475 128.624 73.8221 128.664C73.7968 128.705 73.7636 128.74 73.7245 128.767C73.6854 128.795 73.6413 128.814 73.5946 128.824L71.6043 129.304C71.5767 129.31 71.5485 129.314 71.5202 129.314Z" fill="#0F1011"/>
<path d="M69.2006 132.562C69.2648 133.414 68.9897 134.257 68.4353 134.906C67.881 135.556 67.0924 135.959 66.2417 136.029C65.3911 136.098 64.5475 135.828 63.8952 135.277C63.2429 134.726 62.8348 133.94 62.7601 133.089C62.7181 132.664 62.7618 132.235 62.8888 131.828C63.0158 131.421 63.2234 131.043 63.4992 130.718C63.775 130.392 64.1134 130.126 64.4943 129.934C64.8751 129.742 65.2906 129.629 65.7161 129.602C68.0188 129.529 69.0544 130.782 69.2006 132.562Z" fill="#EEBBAB"/>
<g opacity="0.15">
<path opacity="0.15" d="M76.5483 134.924C76.4853 134.924 76.4244 134.902 76.3766 134.86C76.3289 134.819 76.2974 134.762 76.2881 134.7C76.2787 134.638 76.292 134.574 76.3256 134.521C76.3592 134.467 76.4108 134.428 76.471 134.409L78.0216 133.933L76.937 131.517C76.9094 131.453 76.908 131.381 76.9329 131.317C76.9579 131.252 77.0073 131.2 77.0704 131.172C77.1335 131.143 77.2052 131.141 77.27 131.165C77.3348 131.189 77.3875 131.238 77.4167 131.301L78.6233 133.989C78.6386 134.023 78.6464 134.06 78.6464 134.097C78.6464 134.135 78.6384 134.172 78.623 134.206C78.6077 134.24 78.5852 134.27 78.5573 134.295C78.5293 134.319 78.4964 134.338 78.4607 134.349L76.6256 134.913C76.6006 134.92 76.5745 134.924 76.5483 134.924Z" fill="black"/>
</g>
<path d="M73.5181 136.703C73.5181 136.703 76.331 137 78.3044 136.31C78.3044 136.31 78.2892 138.165 76.0627 138.348C73.8363 138.53 73.5181 136.703 73.5181 136.703Z" fill="white"/>
<path d="M129.413 216.756C146.842 216.756 160.971 202.614 160.971 185.17C160.971 167.725 146.842 153.584 129.413 153.584C111.984 153.584 97.8545 167.725 97.8545 185.17C97.8545 202.614 111.984 216.756 129.413 216.756Z" fill="#50B38D"/>
<path d="M162.515 188.825C162.367 188.942 162.202 189.036 162.025 189.103C161.082 189.298 158.704 188.728 158.323 188.068C157.702 186.993 158.087 183.112 158.634 181.703C159.148 180.387 161.708 180.938 162.044 181.001C162.054 181.004 162.065 181.007 162.076 181.009C162.774 181.201 163.234 181.5 163.253 181.959C163.253 181.959 163.605 187.903 162.515 188.825Z" fill="#EEBBAB"/>
<path d="M92.834 192.413C92.834 192.413 94.1011 185.489 98.9952 186.694C102.084 187.454 111.058 186.097 111.195 190.066C111.313 193.51 102.884 194.428 100.097 194.141C97.5946 193.885 92.834 192.413 92.834 192.413Z" fill="#EEBBAB"/>
<path d="M97.2026 186.62C97.2026 186.62 104.484 185.545 106.11 186.237C107.551 186.85 104.007 188.764 104.007 188.764L97.2026 186.62Z" fill="#EEBBAB"/>
<path d="M99.5319 196.259L66.9853 195.265C65.9693 195.235 64.9798 194.934 64.1181 194.394C63.2564 193.855 62.5536 193.095 62.0817 192.194L46.0127 161.527L56.1687 156.196L70.6823 183.895L99.8817 184.786L99.5319 196.259Z" fill="#4346D5"/>
<path d="M124.756 198.121C124.214 198.121 123.692 197.914 123.297 197.542L112.982 187.799C112.579 187.41 112.346 186.877 112.333 186.317C112.32 185.757 112.528 185.215 112.912 184.807C113.296 184.4 113.825 184.16 114.385 184.141C114.944 184.122 115.488 184.324 115.9 184.704L124.638 192.957L142.811 172.915C142.996 172.699 143.222 172.523 143.477 172.396C143.731 172.27 144.008 172.195 144.292 172.178C144.575 172.16 144.86 172.2 145.128 172.294C145.396 172.388 145.642 172.535 145.852 172.727C146.063 172.918 146.233 173.149 146.352 173.407C146.471 173.665 146.538 173.944 146.548 174.229C146.558 174.513 146.51 174.796 146.409 175.062C146.307 175.327 146.154 175.57 145.957 175.775L126.328 197.423C126.138 197.633 125.909 197.802 125.653 197.922C125.396 198.042 125.119 198.109 124.837 198.12L124.756 198.121Z" fill="white"/>
<path d="M368.148 360.9H360.806V369.001H368.148V360.9Z" fill="#C1D8ED"/>
<path d="M438.001 360.9H430.659V369.001H438.001V360.9Z" fill="#C1D8ED"/>
<path d="M444.322 268.538H413.517V361.838H444.322V268.538Z" fill="#C1D8ED"/>
<path d="M360.712 270.604H329.166V360.9H360.712V270.604Z" fill="#C1D8ED"/>
<path d="M415.592 361.838H327.09V268.538H415.592V361.838ZM331.24 357.685H411.442V272.692H331.24V357.685Z" fill="#DEE8F5"/>
<path d="M415.592 361.838H327.09V310.398H415.592V361.838ZM331.24 357.685H411.442V314.552H331.24V357.685Z" fill="#DEE8F5"/>
<path d="M367.21 280.093V286.034V310.365H404.806V286.034V280.093H367.21Z" fill="#C1D8ED"/>
<path d="M392.484 286.034H354.888V310.365H392.484V286.034Z" fill="#DEE8F5"/>
<path d="M392.484 286.034H354.888V287.858H392.484V286.034Z" fill="#C1D8ED"/>
<path d="M354.888 286.034H392.484V280.093H354.888V286.034Z" fill="#DEE8F5"/>
<path d="M377.853 290.921H369.52C369.041 290.921 368.653 291.309 368.653 291.788V293.707C368.653 294.186 369.041 294.574 369.52 294.574H377.853C378.331 294.574 378.719 294.186 378.719 293.707V291.788C378.719 291.309 378.331 290.921 377.853 290.921Z" fill="white"/>
<path d="M340.086 360.9H332.744V369.001H340.086V360.9Z" fill="#DEE8F5"/>
<path d="M409.939 360.9H402.597V369.001H409.939V360.9Z" fill="#DEE8F5"/>
<path d="M401.587 348.422H360.714V357.685H401.587V348.422Z" fill="#C1D8ED"/>
<path d="M402.29 329.916H361.417V339.179H402.29V329.916Z" fill="#C1D8ED"/>
<path d="M387.64 348.422H344.417V357.685H387.64V348.422Z" fill="#DEE8F5"/>
<g opacity="0.62">
<path opacity="0.62" d="M384.112 348.422H382.014V357.685H384.112V348.422Z" fill="#C1D8ED"/>
</g>
<g opacity="0.62">
<path opacity="0.62" d="M379.916 348.422H377.818V357.685H379.916V348.422Z" fill="#C1D8ED"/>
</g>
<path d="M349.372 356.04C351.02 356.04 352.356 354.703 352.356 353.053C352.356 351.404 351.02 350.066 349.372 350.066C347.724 350.066 346.388 351.404 346.388 353.053C346.388 354.703 347.724 356.04 349.372 356.04Z" fill="#F3F5FD"/>
<path d="M388.342 329.916H345.119V339.179H388.342V329.916Z" fill="#DEE8F5"/>
<path d="M378.064 332.002H347.902V337.093H378.064V332.002Z" fill="#F3F5FD"/>
<g opacity="0.62">
<path opacity="0.62" d="M384.814 329.916H380.844V339.179H384.814V329.916Z" fill="#C1D8ED"/>
</g>
<path d="M364.048 348.432H404.92V339.169H364.048V348.432Z" fill="#C1D8ED"/>
<path d="M347.75 348.432H390.973V339.169H347.75V348.432Z" fill="#F3F5FD"/>
<path d="M351.278 348.432H353.376V339.169H351.278V348.432Z" fill="#DEE8F5"/>
<path d="M355.474 348.432H357.572V339.169H355.474V348.432Z" fill="#DEE8F5"/>
<path d="M386.018 346.786C387.666 346.786 389.002 345.449 389.002 343.799C389.002 342.15 387.666 340.812 386.018 340.812C384.37 340.812 383.034 342.15 383.034 343.799C383.034 345.449 384.37 346.786 386.018 346.786Z" fill="#DEE8F5"/>
<path d="M379.886 341.529H360.806V346.07H379.886V341.529Z" fill="#DEE8F5"/>
<path d="M398.379 247.824C398.233 248.088 398.036 248.321 397.799 248.509C397.563 248.697 397.292 248.837 397.001 248.92C396.711 249.003 396.407 249.028 396.107 248.994C395.807 248.959 395.517 248.866 395.253 248.719C394.662 248.393 393.473 248.671 392.983 249.127C391.689 250.325 391.079 251.264 390.944 252.29H378.838C378.793 251.56 378.699 250.833 378.558 250.115C378.255 248.584 377.544 246.44 375.914 244.931C375.582 244.568 375.137 244.329 374.651 244.253C374.38 244.387 374.085 244.467 373.783 244.486C373.481 244.506 373.179 244.466 372.892 244.368C372.606 244.271 372.342 244.117 372.115 243.917C371.888 243.717 371.702 243.475 371.569 243.203C371.436 242.931 371.358 242.635 371.339 242.333C371.32 242.031 371.361 241.728 371.459 241.442C371.558 241.156 371.712 240.892 371.912 240.665C372.113 240.438 372.356 240.253 372.628 240.121C374.574 239.152 377.034 239.7 379.03 241.547C379.65 242.121 380.205 242.76 380.687 243.453C380.504 242.278 380.217 241.122 379.831 239.998C379.369 238.578 378.521 237.315 377.382 236.352C376.896 235.981 376.576 235.433 376.495 234.827C376.413 234.221 376.574 233.607 376.944 233.121C377.315 232.634 377.863 232.315 378.468 232.233C379.073 232.151 379.686 232.313 380.172 232.683C382.028 234.177 383.415 236.175 384.167 238.437C384.249 238.665 384.328 238.897 384.399 239.133C385.831 235.562 387.297 232.541 390.255 230.8C390.781 230.491 391.409 230.403 392 230.556C392.591 230.71 393.097 231.092 393.406 231.618C393.716 232.145 393.803 232.773 393.65 233.364C393.497 233.956 393.115 234.462 392.589 234.772C390.783 235.835 389.702 238.235 388.483 241.315C389.826 239.761 391.436 238.46 393.236 237.472C393.501 237.327 393.792 237.236 394.093 237.204C394.393 237.172 394.697 237.199 394.986 237.284C395.276 237.37 395.546 237.511 395.782 237.701C396.017 237.891 396.212 238.125 396.357 238.391C396.501 238.656 396.592 238.948 396.625 239.248C396.657 239.549 396.629 239.853 396.544 240.143C396.459 240.433 396.317 240.703 396.128 240.939C395.938 241.174 395.704 241.37 395.439 241.514C394.037 242.287 392.793 243.319 391.774 244.554C392.677 244.151 393.658 243.954 394.647 243.978C395.635 244.002 396.606 244.246 397.488 244.692C398.021 244.99 398.414 245.487 398.581 246.074C398.748 246.661 398.675 247.29 398.379 247.824Z" fill="#50B38D"/>
<path d="M395.704 252.289H374.313V258.514H395.704V252.289Z" fill="#DEE8F5"/>
<path d="M395.702 258.514V265.338C395.702 266.187 395.365 267 394.765 267.601C394.165 268.201 393.352 268.538 392.504 268.538H377.507C376.659 268.538 375.846 268.201 375.246 267.6C374.647 267 374.31 266.187 374.31 265.338V258.514H395.702Z" fill="#C1D8ED"/>
</g>
<defs>
<clipPath id="clip0_119_1934">
<rect width="474" height="369" fill="white"/>
</clipPath>
</defs>
</svg>
